<svg xmlns="http://www.w3.org/2000/svg" width="87" height="87" viewBox="0 0 87 87">
  <g id="Group_164" data-name="Group 164" transform="translate(-1420 -959)">
    <g id="Ellipse_33" data-name="Ellipse 33" transform="translate(1420 959)" fill="#fff" stroke="#e67e22" stroke-width="4">
      <circle cx="43.5" cy="43.5" r="43.5" stroke="none"/>
      <circle cx="43.5" cy="43.5" r="41.5" fill="none"/>
    </g>
    <path id="Path_3441" data-name="Path 3441" d="M139.055,151.62a10.992,10.992,0,0,0-15.545,0l-.177.177-.178-.177a10.992,10.992,0,1,0-15.545,15.545l14.541,14.541a1.674,1.674,0,0,0,2.364,0l14.541-14.54a10.991,10.991,0,0,0,0-15.546Zm-7.293,18.932v-.009c0-.031,0-.061,0-.092s0-.047,0-.07,0-.029,0-.044,0,0,0-.006c-.005-.055-.011-.109-.019-.163-.005-.037-.011-.074-.018-.111s-.007-.044-.012-.066c-.007-.039-.016-.079-.026-.118s-.012-.053-.019-.079l0-.009c-.007-.025-.013-.049-.02-.074s-.02-.068-.031-.1-.018-.057-.028-.085-.021-.059-.032-.088-.022-.058-.034-.087-.023-.055-.035-.082a3.253,3.253,0,0,0-.175-.342l-.043-.072c-.027-.045-.056-.089-.086-.133l-.023-.033-.035-.049-.03-.041c-.027-.037-.056-.073-.085-.108l-.034-.041c-.034-.04-.069-.08-.1-.119l-.048-.051-.054-.055-.044-.043q-.093-.09-.193-.171l.551-.244a2.394,2.394,0,0,0,3.163,0l1.1.492-3.571,3.571v-1.184q0-.046,0-.092Zm-1.134-10.3a3.226,3.226,0,0,1,4.028,0,2.727,2.727,0,0,1,.846,2.094,3.755,3.755,0,0,1-.822,2.375,2.521,2.521,0,0,1-4.076,0,3.752,3.752,0,0,1-.822-2.375A2.727,2.727,0,0,1,130.627,160.25ZM120.619,157a4.458,4.458,0,0,1,5.559,0,3.759,3.759,0,0,1,1.164,2.887,5.207,5.207,0,0,1-1.139,3.293,3.465,3.465,0,0,1-5.608,0,5.209,5.209,0,0,1-1.139-3.293A3.759,3.759,0,0,1,120.619,157Zm-2.992,11.8,1.759-.781,1.823-.809,2.185,2.858,2.218-2.858,1.626.725,1.936.863a2.02,2.02,0,0,1,1.2,1.842v2.578l-7.037,7.037-6.9-6.9v-2.707A2.019,2.019,0,0,1,117.627,168.8Zm-5.834-8.554a3.225,3.225,0,0,1,4.027,0,2.726,2.726,0,0,1,.846,2.094,3.752,3.752,0,0,1-.822,2.375,2.52,2.52,0,0,1-4.076,0,3.752,3.752,0,0,1-.822-2.375A2.726,2.726,0,0,1,111.792,160.25Zm.422,7.514a2.4,2.4,0,0,0,3.163,0l.784.349-.022.02q-.076.07-.147.144l-.033.034c-.029.031-.058.063-.086.1l-.035.04c-.026.031-.052.062-.077.094l-.035.045q-.038.05-.074.1l-.033.047,0,.007-.031.046-.033.051-.024.039c-.024.039-.046.078-.068.118l-.027.05-.005.009-.025.048-.027.054-.026.055c-.009.019-.017.037-.025.055-.043.1-.081.2-.115.3,0,.013-.009.026-.013.039s-.016.049-.023.074l-.019.066c-.008.032-.017.064-.025.1s-.011.044-.015.066,0,.021-.007.031-.01.046-.014.068l0,.021c0,.026-.009.051-.013.077-.009.056-.017.112-.023.168,0,.011,0,.022,0,.033s0,.042-.006.063a.042.042,0,0,0,0,.008c-.005.059-.008.119-.01.179q0,.046,0,.092v1.313l-3.771-3.771Z" transform="translate(1340.168 837.6)" fill="#e67e22"/>
  </g>
</svg>
