<svg xmlns="http://www.w3.org/2000/svg" width="160.795" height="160.172" viewBox="0 0 181.795 177.172">
  <g id="Group_385" data-name="Group 385" transform="translate(-614.61 -5272.9)">
    <path id="Path_664" data-name="Path 664" d="M267.632,199.649c26.427-3.906,54.538,3.811,72.4,23.673,19.044,21.174,25.92,50.971,19.734,78.769-6.227,27.981-25.615,51.037-51.405,63.551-25.888,12.561-56.351,14.159-82.039,1.2-25.156-12.694-44.162-37.722-46.056-65.836-1.662-24.665,21.464-40.9,37.6-59.622,14.87-17.251,27.23-38.4,49.76-41.73" transform="translate(434.427 5074.232)" fill="#e67e22"/>
    <g id="_9" data-name="9" transform="translate(656.04 5305.58)">
      <path id="Path_3459" data-name="Path 3459" d="M489.39,547.589A110.368,110.368,0,0,0,526.012,580.6a2.212,2.212,0,1,0,2.152-3.866,105.979,105.979,0,0,1-35.043-31.523,2.212,2.212,0,1,0-3.731,2.378Zm0,0" transform="translate(-430.365 -469.067)" fill="#1e0701" fill-rule="evenodd"/>
      <path id="Path_3460" data-name="Path 3460" d="M217.679,70.462s-24.043-3.749-27.24-42.692C189.684,18.589,192.4,5,206.138,5.031c4.985.011,11.285,4.441,13.922,18.455C220.061,23.486,224.065,56.324,217.679,70.462Zm0,0" transform="translate(-173.265 -5.031)" fill="#ffb8eb" fill-rule="evenodd"/>
      <path id="Path_3461" data-name="Path 3461" d="M313.986,88.184s-8.271-7.664-2.814-28.759c0,0,3.815-18.519,14.166-23.2,0,0,9.229-10.079,16.48-3.852,4.031,3.463,8.069,15.174,1.906,29.9,0,0-5.514,12.591-10.3,19.058,0,0-2.255,8.244-4.813,10.538C324.772,95.315,319.154,96.4,313.986,88.184Zm0,0" transform="translate(-275.672 -26.817)" fill="#ffe0fd" fill-rule="evenodd"/>
      <path id="Path_3462" data-name="Path 3462" d="M114.614,164.16s-8.206-24.67-28.441-41.673c0,0-10.563-15.91-16.47-5.883,0,0-7.178,13.006,6.991,31.943,0,0,12.888,16.235,32.475,21.963C109.17,170.511,124.852,174.28,114.614,164.16Zm0,0" transform="translate(-67.886 -98.205)" fill="#f6eff5" fill-rule="evenodd"/>
      <path id="Path_3463" data-name="Path 3463" d="M207.509,300.162a11.27,11.27,0,0,1,2.857-5.054c1.992-1.916,3.958-1.589,9.1-6.442,2.179-2.054,2.587-5.356,4.527-6.516a7.5,7.5,0,0,1,5.724-.656c.858.437-.382,3.073-1.25,4.281a45.751,45.751,0,0,1-5.964,5.76c-1.872,1.635-2.022,2.64-5.877,4.59-4.71,2.385-2.079,4.586-1.281,6.722,1.21,3.229,3.891,7.926,2.338,12.982-1.071,3.489-3.3,7.109-8.029,7.444-4.586.324-9.589-1.128-19.786-8.885-1.327-1.008-4.716,1.65-4.716,1.65-4.556,5.266-8.005,6.794-11.315,6.494-2.807-.255-7.666-1.889-7.9-2.864-.306-1.315,4.107-1.127,4.107-1.127a12.733,12.733,0,0,0,9.745-3.643c3.855-3.424,7.264-2.966,9.09-4.339a5.113,5.113,0,0,0,1.875-3.9c.14-2.231-1.18-5.218-1.387-6.715,0,0,5.551,7.281,7.823,3.639,0,0,2.783-6,4.117-8.024,1.041-1.581,3-4.377,3.888-4.137s1.34,3.707,1.46,5.576C206.661,297,206.006,299.667,207.509,300.162Zm0,0" transform="translate(-152.266 -242.711)" fill="#581a1b" fill-rule="evenodd"/>
    </g>
  </g>
</svg>
