<svg xmlns="http://www.w3.org/2000/svg" width="160.795" height="160.172" viewBox="0 0 181.795 177.172">
  <g id="Group_387" data-name="Group 387" transform="translate(-1435.082 -5272.9)">
    <path id="Path_664" data-name="Path 664" d="M267.632,199.649c26.427-3.906,54.538,3.811,72.4,23.673,19.044,21.174,25.92,50.971,19.734,78.769-6.227,27.981-25.615,51.037-51.405,63.551-25.888,12.561-56.351,14.159-82.039,1.2-25.156-12.694-44.162-37.722-46.056-65.836-1.662-24.665,21.464-40.9,37.6-59.622,14.87-17.251,27.23-38.4,49.76-41.73" transform="translate(1254.898 5074.232)" fill="#e67e22"/>
    <g id="Group_180" data-name="Group 180" transform="translate(1458.957 5343.061)">
      <path id="Path_3446" data-name="Path 3446" d="M537.8,513.784l13.091,22.8a2.366,2.366,0,1,0,4.1-2.356l-13.091-22.8a2.366,2.366,0,0,0-4.1,2.356Zm0,0" transform="translate(-491.788 -462.808)" fill="#431420" fill-rule="evenodd"/>
      <path id="Path_3447" data-name="Path 3447" d="M126.05,194.848s-7.391-.223-11.417-1.958a12.873,12.873,0,0,1-4.7-3.726c-1.144-1.441-1.348-3.439-2.257-5.038-1.114-1.958-3.98-4.87-4.425-6.711-.366-1.515.006-2.931,1.754-4.336a5.064,5.064,0,0,0,1.357-3.181c.52-3.063,3-4.619,7.275-5.046,1.416-.142,3.394-.6,4.963-.235a10.731,10.731,0,0,1,4.455,2.446c1.335,1.193,1.964,3.6,3.554,4.711s4.232.821,5.986,1.977a18.459,18.459,0,0,1,4.538,4.959,22.98,22.98,0,0,1,3.166,6.236s1.568,4.247-.828,7.344C139.468,192.29,135.21,195.188,126.05,194.848Zm0,0" transform="translate(-97.805 -149.188)" fill="#ffe0fd" fill-rule="evenodd"/>
      <path id="Path_3448" data-name="Path 3448" d="M70.512,463.909s-8.453-.841-10.973-.376a12.69,12.69,0,0,0-4.226.632s-4.195,2.006-6.066,4.837c0,0-3.181,3.827-3.279,6.762,0,0-.472,3.911,2.979,3.941a11.285,11.285,0,0,0,5.151-2.048,5.392,5.392,0,0,1,3.223-1.129s4.172.26,6.556-2.569c0,0,.154-.657,1.888-.671,0,0,5.435.178,7.67-1.726,0,0,3.669-2.331,4.727-4.461,0,0-.158-3.423-4.506-3.513Zm0,0" transform="translate(-45.945 -420.316)" fill="#ffb8eb" fill-rule="evenodd"/>
      <path id="Path_3449" data-name="Path 3449" d="M446.283,36.281a9.928,9.928,0,0,1,2.03-4.075,29.423,29.423,0,0,0,3.029-4.1s3.732-3.472,3.926-6.137c.19-2.613-.041-5.708,2.016-8.417,1.362-1.794,1.605-4.428.911-7.256,0,0-1.433-6.014-6.951-6.286,0,0-4.347.36-6.211,3.182a10.567,10.567,0,0,0-1.669,3.282s-.709,3.361-3.01,4.939c0,0-1.972,2.8-2.993,4.171-1.039,1.4-2.629,2.551-3.238,4.215-.762,2.081-2.379,5.019-1.333,8.269a19.573,19.573,0,0,0,1.665,6.443s4.484,5.072,5.837,6.225c0,0,1.254,1.527,2.779.806a5.642,5.642,0,0,0,2.38-3Zm0,0" transform="translate(-396.519 -0.012)" fill="#f6eff5" fill-rule="evenodd"/>
      <path id="Path_3450" data-name="Path 3450" d="M317.617,205.663c-2.528-4.484-5.7-10.448-6.963-14.249a.882.882,0,0,0-1.673.557,88.115,88.115,0,0,0,5.8,12.2l-3.677-4.7a.882.882,0,0,0-1.389,1.087l4.321,5.521a52.37,52.37,0,0,1-6.181-5.788.882.882,0,1,0-1.393,1.082c1.639,2.111,6.994,6.549,10.262,9.18-4.1-1.379-11.125-4.42-15.752-10.114a.882.882,0,0,0-1.369,1.113c7.239,8.908,20.04,11.672,20.04,11.672a18.878,18.878,0,0,0,1.214-.288.946.946,0,0,0,.155-.12l.034-.011a.9.9,0,0,0,.3-.178.916.916,0,0,0,.179.023.858.858,0,0,0,.507-.136.818.818,0,0,0,.391-.564,4.926,4.926,0,0,0,.031-.6c.023-2.561-.121-15.875-1.116-21.88a.882.882,0,0,0-1.74.288,116.5,116.5,0,0,1,.953,12.958c-.881-4.423-1.914-9.3-2.567-11.352a.882.882,0,1,0-1.681.534c.723,2.276,1.917,8.057,2.842,12.786-1.979-5.648-4.67-13.283-6.137-17.247a.882.882,0,0,0-1.654.612C312.853,192.105,315.63,199.99,317.617,205.663Zm4.546,5.47a.271.271,0,0,1,.025.025.026.026,0,0,1,.007.007l-.007-.007A.2.2,0,0,0,322.164,211.132Zm0,0" transform="translate(-275.843 -169.497)" fill="#a43c87" fill-rule="evenodd"/>
      <path id="Path_3451" data-name="Path 3451" d="M446.779,432.623c.076,1.793,4.666,3.738,6.646,4.318a5.983,5.983,0,0,0,5.236-.838,10.189,10.189,0,0,0,2.62-5.845c.159-1.911.308-5.1-1.666-5.621,0,0-4.71.347-6.64,1.548C450.836,427.516,446.7,430.831,446.779,432.623Zm0,0" transform="translate(-409.516 -385.162)" fill="#6c1324" fill-rule="evenodd"/>
      <path id="Path_3452" data-name="Path 3452" d="M507.03,158.272c-1.587,1.328-6.877,3.929-6.5,2.165a13.237,13.237,0,0,1,.976-3.557,6.569,6.569,0,0,1,1.778-1.935,24.867,24.867,0,0,1,4.539-2.624,10.059,10.059,0,0,0,3.589-2.172,10.571,10.571,0,0,0,1.625-2.369,49.809,49.809,0,0,1,3.539-4.471,11.01,11.01,0,0,0,1.289-2.371c.391-1.444.033-4.275,1.055-6.291a6.384,6.384,0,0,1,1.842-2.1,9.464,9.464,0,0,0,1.785-2.5,1,1,0,0,1,1.448-.868,3.236,3.236,0,0,1,1.269,2.336,4.992,4.992,0,0,1-.865,3.177s-2.838,5.338-3.765,6.635a31.255,31.255,0,0,1-1.435,2.825c-.738,1.163-2.078,3.034-2.992,4.152-.753.922-1.706,1.663-2.491,2.556-.84.956-1.64,2.169-2.549,3.177A32.274,32.274,0,0,1,507.03,158.272Zm0,0" transform="translate(-458.252 -117.092)" fill="#f6eff5" fill-rule="evenodd"/>
      <path id="Path_3453" data-name="Path 3453" d="M270,372.289c1.031-.183,2.116-1.218,3.292-1.45a10.021,10.021,0,0,1,5.363.533c.976.492,2.99,1.556,3.2,3.482a19.392,19.392,0,0,1-.034,4.256A5.435,5.435,0,0,1,280,381.478a16.531,16.531,0,0,1-3.635,2.482c-1.557.727-4.355,1.587-9.442,0-1.3-.406-2.093-1.769-3.274-2.448a23.244,23.244,0,0,0-3.834-1.642c-1.153-.4-2.367-.566-1.615-3.281a6.655,6.655,0,0,1,2.728-3.717,9.463,9.463,0,0,1,6.177-.932A9.492,9.492,0,0,0,270,372.289Zm0,0" transform="translate(-238.255 -336.237)" fill="#f6eff5" fill-rule="evenodd"/>
      <path id="Path_3454" data-name="Path 3454" d="M288.86,184.972a.727.727,0,0,0-.244.135.677.677,0,0,0-.215.3,1.494,1.494,0,0,0-.036.323,1.757,1.757,0,0,0,.207.943,1.83,1.83,0,0,0,1.917,1.2.643.643,0,0,0,.462-.291.68.68,0,0,0,.417-.5.916.916,0,0,0-.014-.44,2.2,2.2,0,0,0-.156-.377c-.125-.249-.2-.5-.322-.709a1.543,1.543,0,0,0-.314-.391,1.465,1.465,0,0,0-.235-.25,1.073,1.073,0,0,0-.976-.236A.9.9,0,0,0,288.86,184.972Zm6.869-.488a.715.715,0,0,0-.419.37,1.072,1.072,0,0,0-.1.3.827.827,0,0,0-.081.272,1.061,1.061,0,0,0,.05.441c.007.024.016.047.024.07a2.113,2.113,0,0,0,.42.848,1.59,1.59,0,0,0,.095.2,1.036,1.036,0,0,0,.413.408c.127.064.284.1.408.16a.854.854,0,0,0,.353.083,1.418,1.418,0,0,0,.211-.015.884.884,0,0,0,.555-.076.775.775,0,0,0,.432-.626,1.4,1.4,0,0,0-.042-.455.644.644,0,0,0-.129-.389,3.073,3.073,0,0,0-.656-.872,2.593,2.593,0,0,0-.254-.5A.869.869,0,0,0,295.729,184.484Zm3.031.784a1.325,1.325,0,0,0,.007.33,1.168,1.168,0,0,0,.951,1.02,1.145,1.145,0,0,0,1.219.114.718.718,0,0,0,.387-.52,2.184,2.184,0,0,0-.111-.837,3.281,3.281,0,0,0-.226-.453,2.876,2.876,0,0,0-.235-.536,1.424,1.424,0,0,0-.558-.564,3.155,3.155,0,0,0-.647-.189,1.272,1.272,0,0,0-.454,0,.665.665,0,0,0-.575.7A2.821,2.821,0,0,0,298.759,185.268Zm-.293-8.642a3.933,3.933,0,0,0,.043,1.029.772.772,0,0,0,.3.444,1.381,1.381,0,0,0,.4.422.751.751,0,0,0,.857,0,1.767,1.767,0,0,0,.539-.672,4.687,4.687,0,0,0,.4-1.161,1.223,1.223,0,0,0-.123-.73c0-.048,0-.094,0-.139a1.1,1.1,0,0,0-.551-.951,1.07,1.07,0,0,0-.862-.033,1.654,1.654,0,0,0-.967,1.4A3.062,3.062,0,0,0,298.466,176.626Zm7.182-.418a2.263,2.263,0,0,0,.008.461,1.878,1.878,0,0,0,.327.892l.006.008a1.963,1.963,0,0,0,.176.287,1.09,1.09,0,0,0,1.457.4.847.847,0,0,0,.446-.594,2.093,2.093,0,0,0-.041-.815,3.334,3.334,0,0,0-.488-1.167,1.206,1.206,0,0,0-.61-.436.637.637,0,0,0-.063-.038.791.791,0,0,0-.52-.092.754.754,0,0,0-.483.292,1.255,1.255,0,0,0-.216.722C305.648,176.155,305.648,176.181,305.648,176.208Zm3.9-.261a.953.953,0,0,0,.2.176.75.75,0,0,0,.71.092l.056-.016a.542.542,0,0,0,.092.011.62.62,0,0,0,.637-.485c.012-.045.037-.251.056-.462a1.851,1.851,0,0,0,.038-.2,2.576,2.576,0,0,0-.17-1.253,1.753,1.753,0,0,0-.175-.4,1.11,1.11,0,0,0-.586-.482,1.082,1.082,0,0,0-.858.083,1.007,1.007,0,0,0-.494.682,3.232,3.232,0,0,0,.081,1.524A1.68,1.68,0,0,0,309.549,175.947Zm1.7-.457v.029C311.254,175.509,311.254,175.5,311.254,175.49Zm-9.855-1.341a2.2,2.2,0,0,0,.27.289.991.991,0,0,0,.4.211.7.7,0,0,0,.7-.194,1.5,1.5,0,0,0,.385-.911,2.69,2.69,0,0,0-.244-1.374,1.312,1.312,0,0,0-1.53-.824.922.922,0,0,0-.559.409,1.8,1.8,0,0,0-.2,1.12,1.851,1.851,0,0,0,.443,1.043A.993.993,0,0,0,301.4,174.148Zm0,0" transform="translate(-265.822 -155.382)" fill="gold" fill-rule="evenodd"/>
    </g>
    <g id="Group_181" data-name="Group 181" transform="translate(1535.155 5305.58)">
      <path id="Path_3446-2" data-name="Path 3446" d="M554.992,513.784l-13.091,22.8a2.366,2.366,0,1,1-4.1-2.356l13.091-22.8a2.366,2.366,0,0,1,4.1,2.356Zm0,0" transform="translate(-533.978 -462.808)" fill="#431420" fill-rule="evenodd"/>
      <path id="Path_3447-2" data-name="Path 3447" d="M117.87,194.848s7.391-.223,11.417-1.958a12.873,12.873,0,0,0,4.7-3.726c1.144-1.441,1.348-3.439,2.257-5.038,1.114-1.958,3.98-4.87,4.425-6.711.366-1.515-.006-2.931-1.754-4.336a5.064,5.064,0,0,1-1.357-3.181c-.52-3.063-3-4.619-7.275-5.046-1.416-.142-3.394-.6-4.963-.235a10.731,10.731,0,0,0-4.455,2.446c-1.335,1.193-1.964,3.6-3.554,4.711s-4.232.821-5.986,1.977a18.459,18.459,0,0,0-4.538,4.959,22.98,22.98,0,0,0-3.166,6.236s-1.568,4.247.828,7.344C104.452,192.29,108.711,195.189,117.87,194.848Zm0,0" transform="translate(-79.093 -149.188)" fill="#ffe0fd" fill-rule="evenodd"/>
      <path id="Path_3448-2" data-name="Path 3448" d="M53.593,463.909s8.453-.841,10.973-.376a12.69,12.69,0,0,1,4.226.632s4.195,2.006,6.066,4.837c0,0,3.181,3.827,3.279,6.762,0,0,.472,3.911-2.979,3.941a11.285,11.285,0,0,1-5.151-2.048,5.392,5.392,0,0,0-3.223-1.129s-4.172.26-6.556-2.569c0,0-.154-.657-1.888-.671,0,0-5.435.178-7.67-1.726,0,0-3.669-2.331-4.727-4.461,0,0,.158-3.423,4.506-3.513Zm0,0" transform="translate(-11.138 -420.316)" fill="#ffb8eb" fill-rule="evenodd"/>
      <path id="Path_3449-2" data-name="Path 3449" d="M444.739,36.281a9.928,9.928,0,0,0-2.03-4.075,29.422,29.422,0,0,1-3.029-4.1s-3.732-3.472-3.926-6.137c-.19-2.613.041-5.708-2.016-8.417-1.362-1.794-1.605-4.428-.911-7.256,0,0,1.433-6.014,6.951-6.286,0,0,4.347.36,6.211,3.182a10.567,10.567,0,0,1,1.669,3.282s.709,3.361,3.01,4.939c0,0,1.972,2.8,2.993,4.171,1.039,1.4,2.629,2.551,3.238,4.215.762,2.081,2.379,5.019,1.333,8.269a19.573,19.573,0,0,1-1.665,6.443s-4.484,5.072-5.837,6.225c0,0-1.254,1.527-2.779.806a5.642,5.642,0,0,1-2.38-3Zm0,0" transform="translate(-427.481 -0.012)" fill="#f6eff5" fill-rule="evenodd"/>
      <path id="Path_3450-2" data-name="Path 3450" d="M304.245,205.663c2.528-4.484,5.7-10.448,6.963-14.249a.882.882,0,0,1,1.673.557,88.113,88.113,0,0,1-5.8,12.2l3.677-4.7a.882.882,0,0,1,1.389,1.087l-4.321,5.521a52.371,52.371,0,0,0,6.181-5.788.882.882,0,1,1,1.393,1.082c-1.639,2.111-6.994,6.549-10.262,9.18,4.1-1.379,11.125-4.42,15.752-10.114a.882.882,0,0,1,1.369,1.113c-7.239,8.908-20.04,11.672-20.04,11.672a18.878,18.878,0,0,1-1.214-.288.946.946,0,0,1-.155-.12l-.034-.011a.9.9,0,0,1-.3-.178.916.916,0,0,1-.179.023.858.858,0,0,1-.507-.136.818.818,0,0,1-.391-.564,4.926,4.926,0,0,1-.031-.6c-.023-2.561.121-15.875,1.116-21.88a.882.882,0,0,1,1.74.288,116.5,116.5,0,0,0-.953,12.958c.881-4.423,1.914-9.3,2.567-11.352a.882.882,0,1,1,1.681.534c-.723,2.276-1.917,8.057-2.842,12.786,1.979-5.648,4.67-13.283,6.137-17.247a.882.882,0,0,1,1.654.612C309.009,192.105,306.232,199.991,304.245,205.663Zm-4.546,5.47a.271.271,0,0,0-.025.025.026.026,0,0,0-.007.007l.007-.007A.2.2,0,0,1,299.7,211.132Zm0,0" transform="translate(-278.997 -169.497)" fill="#a43c87" fill-rule="evenodd"/>
      <path id="Path_3451-2" data-name="Path 3451" d="M461.365,432.623c-.076,1.793-4.666,3.738-6.646,4.318a5.983,5.983,0,0,1-5.236-.838,10.189,10.189,0,0,1-2.62-5.845c-.159-1.911-.308-5.1,1.666-5.621,0,0,4.71.347,6.64,1.548C457.308,427.516,461.44,430.831,461.365,432.623Zm0,0" transform="translate(-431.606 -385.162)" fill="#6c1324" fill-rule="evenodd"/>
      <path id="Path_3452-2" data-name="Path 3452" d="M518.754,158.273c1.587,1.328,6.877,3.929,6.5,2.165a13.239,13.239,0,0,0-.976-3.557,6.57,6.57,0,0,0-1.778-1.935,24.865,24.865,0,0,0-4.539-2.624,10.059,10.059,0,0,1-3.589-2.172,10.572,10.572,0,0,1-1.625-2.369,49.809,49.809,0,0,0-3.539-4.471,11.01,11.01,0,0,1-1.289-2.371c-.391-1.444-.033-4.275-1.055-6.291a6.384,6.384,0,0,0-1.842-2.1,9.464,9.464,0,0,1-1.785-2.5,1,1,0,0,0-1.448-.868,3.236,3.236,0,0,0-1.269,2.336,4.992,4.992,0,0,0,.865,3.177s2.838,5.338,3.765,6.635a31.255,31.255,0,0,0,1.435,2.825c.738,1.163,2.078,3.034,2.992,4.152.753.922,1.706,1.663,2.491,2.556.84.956,1.64,2.169,2.549,3.177A32.271,32.271,0,0,0,518.754,158.273Zm0,0" transform="translate(-500.51 -117.092)" fill="#f6eff5" fill-rule="evenodd"/>
      <path id="Path_3453-2" data-name="Path 3453" d="M269.931,372.289c-1.031-.183-2.116-1.218-3.292-1.45a10.021,10.021,0,0,0-5.363.533c-.976.492-2.99,1.556-3.2,3.482a19.392,19.392,0,0,0,.034,4.256,5.435,5.435,0,0,0,1.823,2.367,16.531,16.531,0,0,0,3.635,2.482c1.557.727,4.355,1.587,9.442,0,1.3-.406,2.093-1.769,3.274-2.448a23.244,23.244,0,0,1,3.834-1.642c1.153-.4,2.367-.566,1.615-3.281a6.655,6.655,0,0,0-2.728-3.717,9.463,9.463,0,0,0-6.177-.932A9.492,9.492,0,0,1,269.931,372.289Zm0,0" transform="translate(-234.654 -336.237)" fill="#f6eff5" fill-rule="evenodd"/>
      <path id="Path_3454-2" data-name="Path 3454" d="M310.849,184.972a.727.727,0,0,1,.244.135.677.677,0,0,1,.215.3,1.494,1.494,0,0,1,.036.323,1.757,1.757,0,0,1-.207.943,1.83,1.83,0,0,1-1.917,1.2.643.643,0,0,1-.462-.291.68.68,0,0,1-.417-.5.916.916,0,0,1,.014-.44,2.2,2.2,0,0,1,.156-.377c.125-.249.2-.5.322-.709a1.543,1.543,0,0,1,.314-.391,1.465,1.465,0,0,1,.235-.25,1.073,1.073,0,0,1,.976-.236A.9.9,0,0,1,310.849,184.972Zm-6.869-.488a.715.715,0,0,1,.419.37,1.072,1.072,0,0,1,.1.3.827.827,0,0,1,.081.272,1.061,1.061,0,0,1-.05.441c-.007.024-.016.047-.024.07a2.113,2.113,0,0,1-.42.848,1.59,1.59,0,0,1-.095.2,1.036,1.036,0,0,1-.413.408c-.127.064-.284.1-.408.16a.854.854,0,0,1-.353.083,1.418,1.418,0,0,1-.211-.015.884.884,0,0,1-.555-.076.775.775,0,0,1-.432-.626,1.4,1.4,0,0,1,.042-.455.644.644,0,0,1,.129-.389,3.073,3.073,0,0,1,.656-.872,2.593,2.593,0,0,1,.254-.5A.869.869,0,0,1,303.98,184.484Zm-3.031.784a1.325,1.325,0,0,1-.007.33,1.168,1.168,0,0,1-.951,1.02,1.145,1.145,0,0,1-1.219.114.718.718,0,0,1-.387-.52,2.184,2.184,0,0,1,.111-.837,3.281,3.281,0,0,1,.226-.453,2.876,2.876,0,0,1,.235-.536,1.424,1.424,0,0,1,.558-.564,3.155,3.155,0,0,1,.647-.189,1.272,1.272,0,0,1,.454,0,.665.665,0,0,1,.575.7A2.821,2.821,0,0,1,300.95,185.268Zm.293-8.642a3.933,3.933,0,0,1-.043,1.029.772.772,0,0,1-.3.444,1.381,1.381,0,0,1-.4.422.751.751,0,0,1-.857,0,1.767,1.767,0,0,1-.539-.672,4.687,4.687,0,0,1-.4-1.161,1.223,1.223,0,0,1,.123-.73c0-.048,0-.094,0-.139a1.1,1.1,0,0,1,.551-.951,1.07,1.07,0,0,1,.862-.033,1.654,1.654,0,0,1,.967,1.4A3.062,3.062,0,0,1,301.243,176.626Zm-7.182-.418a2.263,2.263,0,0,1-.008.461,1.878,1.878,0,0,1-.327.892l-.006.008a1.963,1.963,0,0,1-.176.287,1.09,1.09,0,0,1-1.457.4.847.847,0,0,1-.446-.594,2.093,2.093,0,0,1,.041-.815,3.334,3.334,0,0,1,.488-1.167,1.206,1.206,0,0,1,.61-.436.637.637,0,0,1,.063-.038.791.791,0,0,1,.52-.092.754.754,0,0,1,.483.292,1.255,1.255,0,0,1,.216.722C294.061,176.155,294.061,176.181,294.061,176.208Zm-3.9-.261a.953.953,0,0,1-.2.176.75.75,0,0,1-.71.092l-.056-.016a.542.542,0,0,1-.092.011.62.62,0,0,1-.637-.485c-.012-.045-.037-.251-.056-.462a1.851,1.851,0,0,1-.038-.2,2.576,2.576,0,0,1,.17-1.253,1.753,1.753,0,0,1,.175-.4,1.11,1.11,0,0,1,.586-.482,1.082,1.082,0,0,1,.858.083,1.007,1.007,0,0,1,.494.682,3.232,3.232,0,0,1-.081,1.524A1.68,1.68,0,0,1,290.16,175.947Zm-1.7-.457v.029C288.455,175.509,288.455,175.5,288.456,175.49Zm9.855-1.341a2.2,2.2,0,0,1-.27.289.991.991,0,0,1-.4.211.7.7,0,0,1-.7-.194,1.5,1.5,0,0,1-.385-.911,2.69,2.69,0,0,1,.244-1.374,1.312,1.312,0,0,1,1.53-.824.922.922,0,0,1,.559.409,1.8,1.8,0,0,1,.2,1.12,1.852,1.852,0,0,1-.443,1.043A.993.993,0,0,1,298.311,174.148Zm0,0" transform="translate(-266.865 -155.382)" fill="gold" fill-rule="evenodd"/>
    </g>
  </g>
</svg>
