<svg xmlns="http://www.w3.org/2000/svg" width="160.795" height="160.172" viewBox="0 0 181.795 177.172">
  <g id="Group_386" data-name="Group 386" transform="translate(-1024.846 -5272.9)">
    <path id="Path_664" data-name="Path 664" d="M267.632,199.649c26.427-3.906,54.538,3.811,72.4,23.673,19.044,21.174,25.92,50.971,19.734,78.769-6.227,27.981-25.615,51.037-51.405,63.551-25.888,12.561-56.351,14.159-82.039,1.2-25.156-12.694-44.162-37.722-46.056-65.836-1.662-24.665,21.464-40.9,37.6-59.622,14.87-17.251,27.23-38.4,49.76-41.73" transform="translate(844.663 5074.232)" fill="#e67e22"/>
    <g id="Group_179" data-name="Group 179" transform="translate(1065.155 5305.58)">
      <path id="Path_3446" data-name="Path 3446" d="M537.952,515.526l19.527,34a3.529,3.529,0,1,0,6.121-3.515l-19.526-34a3.529,3.529,0,0,0-6.121,3.515Zm0,0" transform="translate(-469.325 -439.49)" fill="#431420" fill-rule="evenodd"/>
      <path id="Path_3447" data-name="Path 3447" d="M137.322,209.778s-11.024-.332-17.029-2.92a19.2,19.2,0,0,1-7.015-5.557c-1.707-2.149-2.01-5.129-3.367-7.515-1.661-2.921-5.936-7.264-6.6-10.01-.547-2.26.009-4.372,2.616-6.468,1.341-1.078,1.735-3.05,2.024-4.745.776-4.569,4.476-6.89,10.852-7.527,2.112-.212,5.062-.9,7.4-.35a16.006,16.006,0,0,1,6.645,3.648c1.991,1.779,2.93,5.364,5.3,7.027s6.312,1.225,8.929,2.949,4.874,4.643,6.768,7.4a34.276,34.276,0,0,1,4.722,9.3s2.339,6.334-1.235,10.954C157.337,205.962,150.985,210.286,137.322,209.778Zm0,0" transform="translate(-95.192 -141.672)" fill="#ffe0fd" fill-rule="evenodd"/>
      <path id="Path_3448" data-name="Path 3448" d="M82.589,464.163s-12.609-1.254-16.368-.56a18.928,18.928,0,0,0-6.3.942s-6.257,2.992-9.048,7.215c0,0-4.745,5.709-4.892,10.086,0,0-.7,5.833,4.444,5.879,0,0,4.725-.561,7.683-3.054a8.042,8.042,0,0,1,4.807-1.685s6.223.387,9.778-3.832c0,0,.229-.979,2.816-1,0,0,8.107.266,11.44-2.575,0,0,5.473-3.477,7.05-6.655,0,0-.236-5.106-6.721-5.24Zm0,0" transform="translate(-45.945 -399.139)" fill="#ffb8eb" fill-rule="evenodd"/>
      <path id="Path_3449" data-name="Path 3449" d="M453.084,54.111a14.809,14.809,0,0,1,3.028-6.078,43.885,43.885,0,0,0,4.518-6.113s5.567-5.178,5.856-9.153c.283-3.9-.061-8.515,3.007-12.555,2.032-2.676,2.395-6.6,1.359-10.823,0,0-2.138-8.971-10.368-9.377,0,0-6.485.537-9.264,4.746a15.761,15.761,0,0,0-2.489,4.9s-1.058,5.013-4.489,7.368c0,0-2.942,4.173-4.464,6.221-1.549,2.085-3.922,3.806-4.83,6.287-1.136,3.1-3.548,7.487-1.989,12.334,0,0,.467,5.908,2.484,9.611,0,0,6.688,7.565,8.706,9.286,0,0,1.871,2.277,4.145,1.2,0,0,2.906-1.751,3.551-4.47Zm0,0" transform="translate(-378.856 -0.012)" fill="#f6eff5" fill-rule="evenodd"/>
      <path id="Path_3450" data-name="Path 3450" d="M326.57,214.9c-3.77-6.689-8.5-15.584-10.386-21.253a1.315,1.315,0,0,0-2.5.831c1.612,4.842,5.256,12,8.651,18.2l-5.485-7.01a1.316,1.316,0,0,0-2.072,1.621l6.445,8.235c-3.814-3.2-7.667-6.633-9.219-8.633a1.315,1.315,0,1,0-2.078,1.614c2.445,3.149,10.432,9.769,15.307,13.694-6.112-2.057-16.593-6.592-23.5-15.086a1.316,1.316,0,0,0-2.042,1.66c10.8,13.287,29.892,17.41,29.892,17.41a28.153,28.153,0,0,0,1.81-.429,1.411,1.411,0,0,0,.231-.179l.051-.016a1.346,1.346,0,0,0,.449-.266,1.366,1.366,0,0,0,.267.034,1.279,1.279,0,0,0,.757-.2,1.22,1.22,0,0,0,.584-.842,7.364,7.364,0,0,0,.046-.894c.035-3.82-.181-23.679-1.665-32.636a1.315,1.315,0,0,0-2.6.43,173.771,173.771,0,0,1,1.422,19.328c-1.314-6.6-2.855-13.87-3.828-16.933a1.315,1.315,0,1,0-2.507.8c1.079,3.4,2.859,12.017,4.238,19.072-2.951-8.424-6.966-19.813-9.153-25.726a1.315,1.315,0,0,0-2.467.913C319.464,194.68,323.607,206.442,326.57,214.9Zm6.781,8.158a.406.406,0,0,1,.037.037.039.039,0,0,1,.011.01l-.011-.01A.3.3,0,0,0,333.352,223.06Zm0,0" transform="translate(-264.26 -160.958)" fill="#a43c87" fill-rule="evenodd"/>
      <path id="Path_3451" data-name="Path 3451" d="M446.78,436.549c.113,2.674,6.959,5.575,9.913,6.44,2.531.742,5.858.412,7.811-1.25s3.671-5.869,3.907-8.719.459-7.611-2.485-8.384c0,0-7.026.518-9.9,2.309C452.831,428.931,446.668,433.876,446.78,436.549Zm0,0" transform="translate(-391.198 -365.757)" fill="#6c1324" fill-rule="evenodd"/>
      <path id="Path_3452" data-name="Path 3452" d="M510.235,172.618c-2.366,1.981-10.258,5.861-9.7,3.229a19.744,19.744,0,0,1,1.455-5.305,9.8,9.8,0,0,1,2.651-2.886,37.091,37.091,0,0,1,6.771-3.915,15,15,0,0,0,5.354-3.239,15.766,15.766,0,0,0,2.424-3.534,74.291,74.291,0,0,1,5.278-6.668,16.425,16.425,0,0,0,1.922-3.536c.583-2.154.049-6.377,1.574-9.384a9.523,9.523,0,0,1,2.748-3.132,14.117,14.117,0,0,0,2.663-3.733,1.493,1.493,0,0,1,2.159-1.295,4.826,4.826,0,0,1,1.893,3.484,7.446,7.446,0,0,1-1.291,4.739s-4.232,7.962-5.615,9.9a46.6,46.6,0,0,1-2.14,4.214c-1.1,1.734-3.1,4.526-4.462,6.194-1.123,1.375-2.544,2.48-3.716,3.813-1.253,1.426-2.446,3.235-3.8,4.739A48.139,48.139,0,0,1,510.235,172.618Zm0,0" transform="translate(-437.479 -111.193)" fill="#f6eff5" fill-rule="evenodd"/>
      <path id="Path_3453" data-name="Path 3453" d="M275.917,373.072c1.538-.274,3.156-1.817,4.91-2.163,1.417-.279,5.438-.495,8,.795,1.456.733,4.46,2.321,4.771,5.194,0,0,.411,4.7-.051,6.349a8.106,8.106,0,0,1-2.719,3.531,24.657,24.657,0,0,1-5.422,3.7c-2.323,1.084-6.5,2.368-14.084,0-1.94-.606-3.122-2.638-4.884-3.652a34.675,34.675,0,0,0-5.718-2.449c-1.72-.59-3.53-.844-2.409-4.894.47-1.7,2.038-4.483,4.069-5.544a14.115,14.115,0,0,1,9.214-1.39A14.159,14.159,0,0,0,275.917,373.072Zm0,0" transform="translate(-228.565 -319.297)" fill="#f6eff5" fill-rule="evenodd"/>
      <path id="Path_3454" data-name="Path 3454" d="M289.107,191.691a1.084,1.084,0,0,0-.363.2,1.01,1.01,0,0,0-.32.451,2.227,2.227,0,0,0-.054.482,2.62,2.62,0,0,0,.308,1.407,2.729,2.729,0,0,0,2.859,1.8.96.96,0,0,0,.689-.434,1.015,1.015,0,0,0,.621-.746,1.367,1.367,0,0,0-.022-.656,3.277,3.277,0,0,0-.232-.563c-.186-.371-.3-.748-.481-1.058a2.3,2.3,0,0,0-.468-.583,2.187,2.187,0,0,0-.351-.373,1.6,1.6,0,0,0-1.457-.353A1.346,1.346,0,0,0,289.107,191.691Zm10.246-.729a1.067,1.067,0,0,0-.625.551,1.6,1.6,0,0,0-.145.447,1.233,1.233,0,0,0-.121.405,1.581,1.581,0,0,0,.074.658c.011.035.023.07.036.1a3.151,3.151,0,0,0,.627,1.265,2.376,2.376,0,0,0,.141.3,1.545,1.545,0,0,0,.616.609c.19.1.424.146.609.238a1.274,1.274,0,0,0,.527.124,2.118,2.118,0,0,0,.315-.023,1.319,1.319,0,0,0,.827-.113,1.156,1.156,0,0,0,.645-.934,2.084,2.084,0,0,0-.062-.679.96.96,0,0,0-.193-.581,4.584,4.584,0,0,0-.978-1.3,3.871,3.871,0,0,0-.379-.745A1.3,1.3,0,0,0,299.353,190.962Zm4.521,1.169a1.976,1.976,0,0,0,.01.493,1.742,1.742,0,0,0,1.419,1.521,1.708,1.708,0,0,0,1.818.171,1.07,1.07,0,0,0,.578-.775,3.258,3.258,0,0,0-.165-1.249,4.89,4.89,0,0,0-.337-.675,4.29,4.29,0,0,0-.351-.8,2.124,2.124,0,0,0-.833-.842,4.705,4.705,0,0,0-.966-.282,1.9,1.9,0,0,0-.677,0,.992.992,0,0,0-.858,1.041A4.208,4.208,0,0,0,303.873,192.131Zm-.438-12.89a5.865,5.865,0,0,0,.063,1.535,1.152,1.152,0,0,0,.454.662,2.06,2.06,0,0,0,.591.629,1.12,1.12,0,0,0,1.278,0,2.636,2.636,0,0,0,.8-1,6.992,6.992,0,0,0,.6-1.731,1.824,1.824,0,0,0-.183-1.088c0-.071,0-.14-.007-.207a1.645,1.645,0,0,0-.822-1.418,1.6,1.6,0,0,0-1.285-.05,2.467,2.467,0,0,0-1.442,2.083A4.575,4.575,0,0,0,303.436,179.241Zm10.713-.623a3.371,3.371,0,0,0,.011.687,2.8,2.8,0,0,0,.488,1.331l.009.011a2.934,2.934,0,0,0,.262.428,1.626,1.626,0,0,0,2.174.6,1.264,1.264,0,0,0,.666-.887,3.123,3.123,0,0,0-.062-1.215,4.973,4.973,0,0,0-.728-1.74,1.8,1.8,0,0,0-.91-.65.954.954,0,0,0-.094-.056,1.18,1.18,0,0,0-.775-.137,1.125,1.125,0,0,0-.72.435,1.872,1.872,0,0,0-.322,1.076C314.148,178.539,314.148,178.578,314.149,178.618Zm5.817-.39a1.421,1.421,0,0,0,.292.263,1.118,1.118,0,0,0,1.058.136l.083-.024a.812.812,0,0,0,.137.017.924.924,0,0,0,.951-.723c.018-.067.055-.374.084-.688a2.754,2.754,0,0,0,.056-.294,3.843,3.843,0,0,0-.253-1.869,2.616,2.616,0,0,0-.262-.593,1.656,1.656,0,0,0-.874-.719,1.613,1.613,0,0,0-1.28.124,1.5,1.5,0,0,0-.736,1.017,4.821,4.821,0,0,0,.12,2.273A2.5,2.5,0,0,0,319.966,178.228Zm2.543-.681v.043C322.51,177.575,322.51,177.561,322.509,177.546Zm-14.7-2a3.279,3.279,0,0,0,.4.432,1.478,1.478,0,0,0,.591.315,1.043,1.043,0,0,0,1.037-.289,2.239,2.239,0,0,0,.575-1.358,4.012,4.012,0,0,0-.365-2.049,1.958,1.958,0,0,0-2.283-1.228,1.375,1.375,0,0,0-.834.609,2.687,2.687,0,0,0-.3,1.67,2.761,2.761,0,0,0,.661,1.556A1.481,1.481,0,0,0,307.809,175.546Zm0,0" transform="translate(-254.743 -147.554)" fill="gold" fill-rule="evenodd"/>
    </g>
  </g>
</svg>
