<svg xmlns="http://www.w3.org/2000/svg" width="160.795" height="160.172" viewBox="0 0 181.795 177.172">
  <g id="Group_384" data-name="Group 384" transform="translate(-204.374 -5272.9)">
    <path id="Path_664" data-name="Path 664" d="M267.632,199.649c26.427-3.906,54.538,3.811,72.4,23.673,19.044,21.174,25.92,50.971,19.734,78.769-6.227,27.981-25.615,51.037-51.405,63.551-25.888,12.561-56.351,14.159-82.039,1.2-25.156-12.694-44.162-37.722-46.056-65.836-1.662-24.665,21.464-40.9,37.6-59.622,14.87-17.251,27.23-38.4,49.76-41.73" transform="translate(24.191 5074.232)" fill="#e67e22"/>
    <g id="_8" data-name="8" transform="translate(261.556 5305.58)">
      <path id="Path_3455" data-name="Path 3455" d="M160.85,376.694s8.385,14.257,12.875,25.511c7.136,17.885,6.572,20.106,9.017,29.184a3.2,3.2,0,0,1-6.176,1.661c-2.387-8.856-1.82-11.027-8.783-28.477-4.338-10.87-12.447-24.639-12.447-24.639a3.2,3.2,0,0,1,5.514-3.24Zm0,0" transform="translate(-115.42 -323.604)" fill="#431420" fill-rule="evenodd"/>
      <path id="Path_3456" data-name="Path 3456" d="M252.162,133.651s2.273-3.665,2.6-12.074c0,0-.087-6.225.1-10,0,0,.189-7.315-1.385-11.862,0,0-1.834-4.9-6.064-6.54,0,0-2.777-1.287-3.134,1.048a22.215,22.215,0,0,0,2.648,6.64s3.429,5.429,3.963,10.546a46.434,46.434,0,0,1-.191,8.28s.676,7.018,0,9.394C250.7,129.079,250.691,135.043,252.162,133.651Zm0,0" transform="translate(-199.921 -80.727)" fill="#6c1324" fill-rule="evenodd"/>
      <path id="Path_3457" data-name="Path 3457" d="M301.776,17.555A21.181,21.181,0,0,0,281.462,6.286s-11.2,2.32-17.636,9.066c0,0-8.31,11.183-4.5,22.1,0,0,1.824,9.624,6.133,14.627,0,0,14.307,8.939,21.112,11.1,0,0,9.166,9.1,14.391.244,0,0,8.6-7.307,9.8-14.249,0,0,1.471-8.916-.4-15.532C310.366,33.642,306.4,21.72,301.776,17.555Zm0,0" transform="translate(-258.327 -6.245)" fill="#ffe0fd" fill-rule="evenodd"/>
      <path id="Path_3458" data-name="Path 3458" d="M275.409,278.586c-.243-.1-.382-.146-.382-.146a30.121,30.121,0,0,0-7.506-2.646c-3.918-1.718-11.7-5.385-11.7-5.385-7.686-3.063-7.581.8-7.581.8,1.006,2.189,6.384,5.933,6.384,5.933,3.555,1.567,10.068,5.3,10.068,5.3a26.93,26.93,0,0,0,10.966,5.457c2.993.807,9.083.029,9.3.006,0,0,15.758-4.37,11.521-21.609-1.077-4.382-7.619-8.683-13.581-4.92C282.9,261.38,272.691,266.057,275.409,278.586Zm0,0" transform="translate(-242.803 -224.51)" fill="#6c1324" fill-rule="evenodd"/>
    </g>
  </g>
</svg>
