<svg xmlns="http://www.w3.org/2000/svg" width="239.639" height="237.403" viewBox="0 0 239.639 237.403">
  <g id="Group_83" data-name="Group 83" transform="translate(-688.478 -3061.5)">
    <path id="Path_666" data-name="Path 666" d="M267.632,199.649c26.427-3.906,54.538,3.811,72.4,23.673,19.044,21.174,25.92,50.971,19.734,78.769-6.227,27.981-25.615,51.037-51.405,63.551-25.888,12.561-56.351,14.159-82.039,1.2-25.156-12.694-44.162-37.722-46.056-65.836-1.662-24.665,21.464-40.9,37.6-59.622,14.87-17.251,27.23-38.4,49.76-41.73" transform="translate(684.013 2805.297) rotate(25)" fill="#fbf3e8"/>
    <g id="pen" transform="translate(736.962 3133.598)">
      <path id="Path_668" data-name="Path 668" d="M98.8,10.23,83.84,21.8,75.5,13.666,83.79,3.61A.981.981,0,0,0,83.638,2.2a1.025,1.025,0,0,0-1.415.1l-9.449,11.47,1.263,1.213c-.051,0-.051.05-.1.05C70.5,17.961,65.6,18.466,62.618,18.466h-.91a2.336,2.336,0,0,0-2.223,1.617l-6.973,23.5c-9.6,4.75-10.005,6.67-10.157,7.428a1.856,1.856,0,0,0,.4,1.617c1.617,1.87,4.5,1.263,6.468.91l.505-.1c.3-.051.758-.2,1.415-.354,6.114-1.566,9.651-1.92,10.561-1.112.05.05.151.1.1.4-.1.758-.859,1.415-1.718,2.122a8.607,8.607,0,0,0-1.768,1.819c-1.011,1.566-1.162,2.88-.505,3.891,1.314,1.92,5.407,2.021,13.593.3a3.437,3.437,0,0,0,.606-.152c9.55-1.819,15.563-1.516,17.837.809.96.96,1.213,2.375.758,4.194a1.029,1.029,0,0,0,.758,1.213c.1,0,.152.05.2.05a.969.969,0,0,0,.96-.809,6.237,6.237,0,0,0-1.263-6.064c-4.194-4.346-15.816-2.122-19.656-1.415-.151.051-.353.051-.657.152-9.6,2.021-11.218.91-11.521.505-.152-.253,0-.91.505-1.667A6.953,6.953,0,0,1,61.3,55.96c1.061-.859,2.224-1.819,2.426-3.386a2.364,2.364,0,0,0-.758-2.173c-1.819-1.617-6.266-.91-12.38.657-.556.152-1.061.253-1.314.3-.152.051-.354.051-.505.1-1.415.3-3.588.708-4.447-.151.151-.354,1.263-2.223,10.157-6.468l.152-.1a1.192,1.192,0,0,0,.455-.4l21.779-6.771a2.4,2.4,0,0,0,1.617-2.324c-.151-6.973,2.072-10.46,3.588-11.976l.152-.152,1.415,1.364L99.96,11.8a1.034,1.034,0,0,0,.2-1.415A.965.965,0,0,0,98.8,10.23ZM76.514,35.343a.512.512,0,0,1-.2.354l-19.1,5.912,11.875-11.42a1.553,1.553,0,0,0,.505.051,2.527,2.527,0,1,0-2.526-2.527,2.8,2.8,0,0,0,.354,1.263L55.544,40.4,61.4,20.69a.577.577,0,0,1,.3-.152h.91c3.638,0,8.742-.657,12.531-3.891L80.505,22C78.585,24.126,76.362,28.067,76.514,35.343Zm0,0" transform="translate(0 0)" fill="#e67e22"/>
      <path id="Path_669" data-name="Path 669" d="M527.5,71.476a.976.976,0,0,0-1.415,0l-4.042,4.042a.976.976,0,0,0,0,1.415.977.977,0,0,0,1.415,0l4.042-4.042A.977.977,0,0,0,527.5,71.476Zm0,0" transform="translate(-441.036 -63.672)" fill="#e67e22"/>
      <path id="Path_670" data-name="Path 670" d="M554.307,115.1a1,1,0,0,0,.707-.3l4.042-4.042a1,1,0,0,0-1.415-1.415l-4.042,4.042a.977.977,0,0,0,0,1.415A1,1,0,0,0,554.307,115.1Zm0,0" transform="translate(-470.063 -98.503)" fill="#e67e22"/>
    </g>
    <text id="Education" transform="translate(808 3230)" fill="#242424" font-size="23" font-family="HelveticaNeue, Helvetica Neue"><tspan x="-51" y="0">Education</tspan></text>
  </g>
</svg>
