<svg xmlns="http://www.w3.org/2000/svg" width="181.795" height="177.173" viewBox="0 0 181.795 177.173">
  <g id="Group_82" data-name="Group 82" transform="translate(-698.768 -2747.414)">
    <path id="Path_664" data-name="Path 664" d="M267.632,199.649c26.427-3.906,54.538,3.811,72.4,23.673,19.044,21.174,25.92,50.971,19.734,78.769-6.227,27.981-25.615,51.037-51.405,63.551-25.888,12.561-56.351,14.159-82.039,1.2-25.156-12.694-44.162-37.722-46.056-65.836-1.662-24.665,21.464-40.9,37.6-59.622,14.87-17.251,27.23-38.4,49.76-41.73" transform="translate(518.584 2548.746)" fill="#fbf3e8"/>
    <text id="Heritage" transform="translate(745 2878)" fill="#242424" font-size="23" font-family="HelveticaNeue, Helvetica Neue"><tspan x="0" y="0">Heritage</tspan></text>
    <g id="_6" data-name="6" transform="translate(739.578 2625.883)">
      <path id="Path_68" data-name="Path 68" d="M507.162,229.047c-.164-2.165-.437-4.324-.8-6.463-.261-1.514-.566-3.024-.935-4.515l-.119.034a68.6,68.6,0,0,0-7.97,2.9c-2.011.869-3.961,1.854-5.893,2.895a34.017,34.017,0,0,1,12.391-7.12c.9-.31,1.882-.574,2.809-.823.253.924.511,1.911.7,2.847a38.6,38.6,0,0,1,.764,6.649,29.358,29.358,0,0,1-.732,7.647C507.323,231.743,507.268,230.4,507.162,229.047Zm0,0" transform="translate(-430.664 -46.306)" fill="#ed96d9"/>
      <path id="Path_69" data-name="Path 69" d="M.406,462.819a41.755,41.755,0,0,1,8.488-3.786l.286-.088c-.361.17-.719.345-1.077.517a56.522,56.522,0,0,0-6.755,3.884,52.624,52.624,0,0,0,5.615,6.577A41.852,41.852,0,0,0,14,475.595a25.815,25.815,0,0,0,14.63,4.3A38.224,38.224,0,0,0,39.2,478.154a61.692,61.692,0,0,0,7.8-3.017l-.087.011.085-.024.04-.011-.036.024c-.317.209-.756.471-1.072.67-6.446,3.9-14.429,6.4-22,5.383a29.038,29.038,0,0,1-14.949-7.267A44.046,44.046,0,0,1,.263,463.485l-.255-.43.4-.239Zm0,0" transform="translate(0 -259.246)" fill="#ed96d9"/>
      <path id="Path_70" data-name="Path 70" d="M445.045,479.7a27.627,27.627,0,0,0,9.734-.514,31.14,31.14,0,0,0,12.159-6.479,50.627,50.627,0,0,0,8.673-9.351,57.647,57.647,0,0,0-7.833-4.4,41.692,41.692,0,0,1,8.773,3.874l.4.238-.254.428A41.912,41.912,0,0,1,463.5,477.263a26.376,26.376,0,0,1-10.472,3.937c-6.959.925-14.062-1.069-20.169-4.337-.869-.463-1.714-.971-2.547-1.5-.119-.074-.239-.149-.355-.227a58.132,58.132,0,0,0,7.8,3.024,41.7,41.7,0,0,0,7.287,1.532Zm0,0" transform="translate(-376.782 -259.253)" fill="#ed96d9"/>
      <path id="Path_71" data-name="Path 71" d="M190.782,219.524c-1.441-.53-2.9-1.022-4.375-1.447-.009.04-.02.081-.029.121a69.028,69.028,0,0,0-1.475,8.355c-.253,2.177-.375,4.36-.44,6.553a34.022,34.022,0,0,1,.033-14.3c.183-.937.444-1.918.692-2.846.926.243,1.91.512,2.812.821a38.669,38.669,0,0,1,6.138,2.662,29.28,29.28,0,0,1,6.254,4.458c-1.2-.639-2.391-1.265-3.61-1.848-1.955-.94-3.962-1.783-6-2.535Zm0,0" transform="translate(-160.992 -46.313)" fill="#ed96d9"/>
      <path id="Path_72" data-name="Path 72" d="M414.476,383.58c7.159,1.39,14.826,1.581,21.821-.736,8.185-2.635,13.823-9.634,17.324-17.22.359-.771.706-1.578,1.025-2.367.537-1.342,1.026-2.708,1.443-4.093a49.055,49.055,0,0,0-5.141-1,39.7,39.7,0,0,0-16.08.749,25.492,25.492,0,0,0-9.049,4.572,23.124,23.124,0,0,1,4.546-3.4,24.578,24.578,0,0,1,3.046-1.469,36.32,36.32,0,0,1,16.687-2.029,46.452,46.452,0,0,1,7.984,1.433,47.418,47.418,0,0,1-2.728,7.917,37.726,37.726,0,0,1-8.914,12.732,24.851,24.851,0,0,1-7.195,4.571c-6.186,2.537-13.139,2.7-19.655,1.568a43.234,43.234,0,0,1-4.7-1.09l-.419-.128,0,0Zm0,0" transform="translate(-363.213 -169.372)" fill="#ed96d9"/>
      <path id="Path_73" data-name="Path 73" d="M305.858,193.647c-2.084-9.17,1.882-18.525,7.457-25.691a45.638,45.638,0,0,1,4.313-4.839,45.821,45.821,0,0,1,4.444,5.158,44.449,44.449,0,0,1,3.368,5.244,32.418,32.418,0,0,1,3.913,11.746c.061.576.112,1.186.131,1.767s.018,1.18,0,1.768a26.9,26.9,0,0,0-.557-4.358,30.413,30.413,0,0,0-1.068-3.791,38.314,38.314,0,0,0-3.159-6.71,47.7,47.7,0,0,0-3.714-5.384c-.448-.57-.919-1.131-1.391-1.68-.633-.73-1.285-1.446-1.96-2.133-5.668,6.013-10.455,13.827-11.295,22.153a24.986,24.986,0,0,0,.446,7.491,38.925,38.925,0,0,0,4.751,11.72,35.654,35.654,0,0,1-5.181-10.485c-.194-.64-.346-1.321-.495-1.971Zm0,0" transform="translate(-267.535)" fill="#ed96d9"/>
      <path id="Path_74" data-name="Path 74" d="M355.747,388.131c.747.964,1.505,1.91,2.3,2.836,1.2,1.4,2.452,2.768,3.775,4.055.092-.1.184-.2.271-.3a55.428,55.428,0,0,0,6.015-8,36.04,36.04,0,0,0,5.593-15.9c.395,5.037-1.158,10.145-3.479,14.572a42.014,42.014,0,0,1-5.573,8.064,40.172,40.172,0,0,1-2.827,2.919l-.318-.339a39.11,39.11,0,0,1-3.133-3.783,36.158,36.158,0,0,1-2.62-4.128Zm0,0" transform="translate(-311.748 -182.026)" fill="#ed96d9"/>
      <path id="Path_75" data-name="Path 75" d="M62.12,383.4c-6.919-2.664-12.036-8.6-15.367-15.063-.473-.91-.928-1.876-1.337-2.816a47.177,47.177,0,0,1-2.549-7.509,46.92,46.92,0,0,1,9.026-1.518A35.56,35.56,0,0,1,67.782,358.7c.627.261,1.287.565,1.89.874.355.182.8.428,1.139.626a23.392,23.392,0,0,1,4.321,3.273,25.514,25.514,0,0,0-9.051-4.572,39.373,39.373,0,0,0-15.578-.817,49.542,49.542,0,0,0-5.643,1.073c.251.836.53,1.667.827,2.486a47.06,47.06,0,0,0,4.514,9.24,29.507,29.507,0,0,0,10.176,10.072,30.37,30.37,0,0,0,12.256,3.486,46,46,0,0,0,6.928.047,54.252,54.252,0,0,0,6.916-.91l-.419.128-.422.12c-.844.24-1.7.449-2.553.633-6.9,1.461-14.314,1.517-20.962-1.063Zm0,0" transform="translate(-37.559 -169.365)" fill="#ed96d9"/>
    </g>
  </g>
</svg>
