<svg id="f064194d3d5b44b" xmlns="http://www.w3.org/2000/svg" width="109.83" height="26.819" viewBox="0 0 109.83 26.819">
  <path id="Path_3492" data-name="Path 3492" d="M45.037,6.749H38.959a.844.844,0,0,0-.834.713L35.666,23.047a.507.507,0,0,0,.5.585h2.9a.844.844,0,0,0,.834-.714l.663-4.2A.844.844,0,0,1,41.4,18h1.924c4,0,6.314-1.937,6.918-5.777A4.681,4.681,0,0,0,49.467,8.3c-.864-1.015-2.4-1.552-4.43-1.552Zm.7,5.692c-.332,2.181-2,2.181-3.61,2.181h-.917l.643-4.073a.507.507,0,0,1,.5-.427h.42c1.1,0,2.133,0,2.668.626a2.025,2.025,0,0,1,.3,1.694Zm17.466-.07h-2.91a.507.507,0,0,0-.5.427l-.129.814-.2-.3c-.63-.914-2.035-1.22-3.437-1.22a6.693,6.693,0,0,0-6.5,5.853,5.494,5.494,0,0,0,1.084,4.471A4.554,4.554,0,0,0,54.276,23.9,5.569,5.569,0,0,0,58.3,22.235l-.13.809a.507.507,0,0,0,.5.587H61.3a.844.844,0,0,0,.834-.714L63.7,12.956a.5.5,0,0,0-.5-.585Zm-4.057,5.665a3.244,3.244,0,0,1-3.284,2.779,2.255,2.255,0,0,1-2.411-2.83,3.258,3.258,0,0,1,3.262-2.8,2.455,2.455,0,0,1,1.941.793A2.519,2.519,0,0,1,59.147,18.035ZM78.7,12.371H75.78a.848.848,0,0,0-.7.371l-4.034,5.942-1.71-5.71a.847.847,0,0,0-.81-.6H65.653a.507.507,0,0,0-.481.67l3.222,9.454L65.365,26.77a.507.507,0,0,0,.413.8H68.7a.843.843,0,0,0,.694-.363l9.728-14.041a.507.507,0,0,0-.416-.8Z" transform="translate(-3.969 -0.751)" fill="#253b80"/>
  <path id="Path_3493" data-name="Path 3493" d="M93.818,6.749H87.739a.844.844,0,0,0-.834.713L84.447,23.047a.506.506,0,0,0,.5.585h3.119a.591.591,0,0,0,.583-.5l.7-4.418A.844.844,0,0,1,90.18,18H92.1c4,0,6.314-1.937,6.919-5.777A4.678,4.678,0,0,0,98.246,8.3c-.863-1.015-2.394-1.552-4.428-1.552Zm.7,5.692c-.331,2.181-2,2.181-3.61,2.181h-.916l.644-4.073a.5.5,0,0,1,.5-.427h.42c1.1,0,2.133,0,2.668.626a2.026,2.026,0,0,1,.294,1.694Zm17.466-.07h-2.909a.5.5,0,0,0-.5.427l-.129.814-.2-.3c-.63-.914-2.034-1.22-3.437-1.22a6.692,6.692,0,0,0-6.5,5.853,5.5,5.5,0,0,0,1.083,4.471,4.556,4.556,0,0,0,3.666,1.481,5.569,5.569,0,0,0,4.028-1.666l-.13.809a.507.507,0,0,0,.5.587h2.621a.844.844,0,0,0,.834-.714l1.574-9.961a.507.507,0,0,0-.5-.585Zm-4.057,5.665a3.242,3.242,0,0,1-3.284,2.779,2.255,2.255,0,0,1-2.411-2.83,3.259,3.259,0,0,1,3.262-2.8,2.455,2.455,0,0,1,1.941.793A2.506,2.506,0,0,1,107.927,18.035Zm7.488-10.859-2.495,15.87a.506.506,0,0,0,.5.585h2.508a.843.843,0,0,0,.834-.714l2.46-15.584a.507.507,0,0,0-.5-.586h-2.808a.507.507,0,0,0-.5.428Z" transform="translate(-9.399 -0.751)" fill="#179bd7"/>
  <path id="Path_3494" data-name="Path 3494" d="M6.575,26.023l.465-2.952L6,23.047H1.061L4.5,1.262a.281.281,0,0,1,.279-.238h8.336c2.767,0,4.677.576,5.674,1.713a3.9,3.9,0,0,1,.909,1.7A6.151,6.151,0,0,1,19.7,6.79l-.011.068v.6l.467.265a3.279,3.279,0,0,1,.946.722,3.36,3.36,0,0,1,.768,1.722,7.285,7.285,0,0,1-.109,2.5A8.8,8.8,0,0,1,20.739,15.5a5.818,5.818,0,0,1-1.622,1.777,6.58,6.58,0,0,1-2.184.986,10.893,10.893,0,0,1-2.73.315h-.649a1.951,1.951,0,0,0-1.929,1.647l-.049.266-.821,5.2-.037.191a.164.164,0,0,1-.052.111.138.138,0,0,1-.085.031H6.575Z" transform="translate(-0.118 -0.114)" fill="#253b80"/>
  <path id="Path_3495" data-name="Path 3495" d="M21.171,7.667q-.037.239-.085.489c-1.1,5.644-4.86,7.594-9.664,7.594H8.977A1.188,1.188,0,0,0,7.8,16.756L6.551,24.7,6.2,26.948a.626.626,0,0,0,.618.723h4.338a1.044,1.044,0,0,0,1.031-.88l.043-.22.817-5.183.052-.284a1.043,1.043,0,0,1,1.031-.882h.649c4.2,0,7.493-1.706,8.454-6.644.4-2.063.194-3.785-.869-5a4.148,4.148,0,0,0-1.187-.915Z" transform="translate(-0.689 -0.853)" fill="#179bd7"/>
  <path id="Path_3496" data-name="Path 3496" d="M20.224,7.1a8.671,8.671,0,0,0-1.069-.237A13.583,13.583,0,0,0,17,6.707H10.465a1.042,1.042,0,0,0-1.03.882l-1.39,8.8-.04.257a1.187,1.187,0,0,1,1.174-1.006h2.446c4.8,0,8.564-1.951,9.664-7.594.033-.167.06-.33.085-.489a5.86,5.86,0,0,0-.9-.381q-.122-.041-.246-.077Z" transform="translate(-0.891 -0.746)" fill="#222d65"/>
  <path id="Path_3497" data-name="Path 3497" d="M8.544,6.842a1.039,1.039,0,0,1,1.03-.881h6.534a13.583,13.583,0,0,1,2.156.157,8.671,8.671,0,0,1,1.316.314,5.948,5.948,0,0,1,.9.381,5.331,5.331,0,0,0-1.13-4.792C18.11.606,15.866,0,12.995,0H4.659A1.191,1.191,0,0,0,3.481,1.007L.009,23.015a.716.716,0,0,0,.707.828H5.862l1.292-8.2,1.39-8.8Z" transform="translate(0 0)" fill="#253b80"/>
</svg>
