<svg xmlns="http://www.w3.org/2000/svg" width="209.799" height="206.05" viewBox="0 0 209.799 206.05">
  <g id="Group_81" data-name="Group 81" transform="translate(-581.729 -2933.95)">
    <path id="Path_665" data-name="Path 665" d="M267.632,199.649c26.427-3.906,54.538,3.811,72.4,23.673,19.044,21.174,25.92,50.971,19.734,78.769-6.227,27.981-25.615,51.037-51.405,63.551-25.888,12.561-56.351,14.159-82.039,1.2-25.156-12.694-44.162-37.722-46.056-65.836-1.662-24.665,21.464-40.9,37.6-59.622,14.87-17.251,27.23-38.4,49.76-41.73" transform="matrix(0.985, 0.174, -0.174, 0.985, 469.547, 2707.013)" fill="#fbf3e8"/>
    <g id="Group_80" data-name="Group 80" transform="translate(0 9.428)">
      <g id="_9" data-name="9" transform="translate(418.976 2962.678)">
        <path id="Path_81" data-name="Path 81" d="M379.091,23.409a6.5,6.5,0,0,0-5,4.643,7.567,7.567,0,0,0,1.776,6.994,9.766,9.766,0,0,0,7.108,3.14,11.256,11.256,0,0,0,7.391-2.289,7.165,7.165,0,0,0,2.217-3.161A8.792,8.792,0,0,0,393.008,29a12.832,12.832,0,0,0-1.014-3.892,24.419,24.419,0,0,0-1.96-3.576c-1.358-2.113-2.8-4.179-4.041-6.364-.3-.532-.587-1.071-.846-1.624-.064-.138-.128-.278-.189-.418-.013-.03-.026-.059-.038-.087-.053-.123.021.047.026.059-.026-.08-.066-.161-.1-.242-.108-.273-.208-.549-.294-.829-.081-.261-.153-.526-.21-.795-.028-.134-.053-.267-.074-.4-.009-.059-.015-.178.009.066,0-.028-.007-.055-.011-.083-.009-.068-.015-.138-.022-.206a4.875,4.875,0,0,1-.011-.68c0-.07.009-.14.015-.208,0-.04.009-.078.013-.117l.007-.047c.013-.119-.034.229-.015.117a6.259,6.259,0,0,1,.21-.924c.049-.157.106-.312.168-.464s-.085.193-.024.057c.017-.036.032-.072.049-.108.036-.081.076-.159.117-.238.078-.15.163-.294.254-.437.045-.068.089-.134.136-.2.023-.032.049-.063.072-.1.053-.072-.142.178-.066.087l.051-.063a4.425,4.425,0,0,1,.348-.377c.059-.057.119-.113.18-.165l.083-.07a.351.351,0,0,1,.063-.051c-.025.011-.184.138-.074.057.14-.1.282-.195.431-.28.079-.044.159-.085.24-.123.034-.017.07-.032.1-.047.113-.053-.184.074-.1.04l.081-.032a3.964,3.964,0,0,1,.543-.163c.091-.021.182-.038.275-.053.026,0,.053-.006.079-.013.009,0-.234.028-.117.017.06-.006.119-.013.178-.017a4.8,4.8,0,0,1,.63-.009c.115.006.229.015.344.028a.34.34,0,0,1,.093.011s-.225-.032-.1-.013l.189.03a8.016,8.016,0,0,1,1.563.458l.11.045c.1.042-.188-.083-.034-.015.059.028.121.053.18.08.14.064.278.132.416.2.314.157.619.329.921.511a.8.8,0,1,0,.8-1.374c-1.835-1.1-4.168-2.022-6.315-1.321a4.894,4.894,0,0,0-2.049,1.3,6.156,6.156,0,0,0-1.222,1.995,6.357,6.357,0,0,0-.42,1.984,7.938,7.938,0,0,0,.615,3.231,35.845,35.845,0,0,0,3.49,6.28c.732,1.145,1.508,2.26,2.227,3.413.358.574.7,1.158,1.016,1.755.155.295.3.594.442.9.038.083.074.163.11.246.015.034.03.066.042.1.055.129-.008-.024-.017-.04a3.374,3.374,0,0,1,.195.492,11.551,11.551,0,0,1,.5,1.722c.03.144.057.286.081.431.013.08.025.161.036.239.008.049.013.153-.009-.065,0,.049.013.1.017.144.034.305.057.611.064.918a8.777,8.777,0,0,1-.026.888c-.006.072-.013.142-.019.214,0,.038-.034.278-.015.132s-.015.091-.021.129c-.013.078-.028.155-.043.233a7.3,7.3,0,0,1-.225.867c-.045.134-.093.267-.144.4-.011.028-.026.057-.036.087.068-.2.038-.091.015-.038-.036.078-.072.157-.11.235a6.325,6.325,0,0,1-.433.738c-.045.066-.091.13-.138.2-.028.038-.093.112.038-.047-.019.025-.038.049-.059.074-.1.123-.2.242-.31.356a6.763,6.763,0,0,1-.653.611c-.023.019-.049.04-.074.059-.1.083.038-.03.049-.036-.066.042-.127.1-.191.14-.121.087-.246.172-.373.252-.248.157-.5.3-.768.433-.13.063-.259.125-.39.182-.036.017-.074.032-.111.049-.1.044.191-.076.036-.015-.074.03-.148.059-.223.087a11.044,11.044,0,0,1-1.708.492c-.151.032-.3.059-.454.085-.085.015-.17.025-.255.04-.047.007-.155.017.059-.006l-.153.019c-.325.038-.649.064-.976.074s-.634.009-.953-.007c-.155-.009-.307-.019-.46-.032-.076-.007-.153-.015-.229-.023l-.1-.013c-.172-.019.166.026.009,0a10.247,10.247,0,0,1-1.882-.458c-.144-.051-.286-.106-.429-.163-.044-.017-.127-.068.049.021-.03-.015-.061-.027-.093-.04-.085-.038-.17-.078-.255-.119a8.46,8.46,0,0,1-.814-.452c-.119-.074-.234-.152-.348-.233-.057-.04-.113-.08-.17-.123s-.115-.117.032.025c-.034-.032-.074-.057-.108-.087a7.4,7.4,0,0,1-.638-.579,8.313,8.313,0,0,1-.573-.644c-.013-.017-.113-.138-.024-.03s-.009-.013-.021-.032c-.036-.049-.074-.1-.108-.151-.089-.127-.174-.256-.257-.388a7.34,7.34,0,0,1-.418-.772c-.026-.055-.051-.112-.076-.167-.068-.148.057.144.017.042-.015-.036-.03-.072-.043-.106-.053-.136-.1-.273-.146-.411a6.913,6.913,0,0,1-.21-.823c-.013-.068-.023-.136-.034-.2s-.011-.176.007.053c0-.03-.009-.061-.011-.091-.017-.153-.03-.305-.036-.458a5.729,5.729,0,0,1,.026-.831.877.877,0,0,1,.013-.108c0,.006-.032.212-.011.082.011-.063.019-.127.032-.193.026-.136.053-.269.089-.4a7.173,7.173,0,0,1,.261-.78c-.091.242-.011.028.015-.03s.055-.119.085-.176c.063-.129.134-.256.206-.381s.136-.223.208-.331c.032-.049.066-.1.1-.142.022-.03.043-.059.064-.087.1-.14-.07.087-.019.023a6.772,6.772,0,0,1,.533-.593c.093-.089.186-.176.286-.261.049-.042.1-.083.148-.123.083-.068-.167.123-.042.032.034-.026.068-.051.1-.076a5.6,5.6,0,0,1,.672-.411c.057-.03.115-.057.172-.085l.078-.036c.14-.066-.153.061-.053.021.119-.047.238-.093.361-.132a4.861,4.861,0,0,1,.772-.178.8.8,0,0,0,.475-.365.794.794,0,0,0-.284-1.087A.928.928,0,0,0,379.091,23.409Zm0,0" transform="translate(-109.435 0)" fill="#e67e22"/>
        <path id="Path_82" data-name="Path 82" d="M252.885,263.243c.577-.329,1.165-.638,1.765-.922q.229-.108.458-.21l.125-.055c.021-.009.153-.066.062-.028s.019-.009.032-.013l.191-.079c.342-.138.687-.263,1.039-.375.337-.108.681-.2,1.026-.28.166-.036.331-.07.5-.1.089-.015.176-.03.265-.04-.184.025.1-.009.151-.015a6.777,6.777,0,0,1,1.035-.021c.074,0,.148.011.221.017.042,0,.082.009.125.015-.18-.019-.064-.009-.026,0,.163.032.327.061.488.1a4.851,4.851,0,0,1,.471.157c-.15-.055.007,0,.066.032.085.04.168.083.248.13a4.232,4.232,0,0,1,.424.277c-.123-.091.023.021.066.059.076.066.148.134.219.2s.127.132.186.2c.032.034.059.072.091.106.006.007.078.1.025.03s.034.047.047.064c.03.04.057.08.085.121q.1.146.184.3c.051.091.1.182.14.278-.053-.113.036.1.049.131a4.9,4.9,0,0,1,.166.63c0,.026.025.155.006.017,0,.038.009.076.013.115.011.1.017.206.019.307a5.159,5.159,0,0,1-.019.624c0,.019-.019.182-.009.089s-.011.07-.015.089c-.015.091-.032.182-.053.271a6.384,6.384,0,0,1-.183.653c-.034.1-.072.2-.112.3s0,.013,0,0c-.021.049-.045.1-.066.146a6.486,6.486,0,0,1-.323.6,4.632,4.632,0,0,1-.715.941,15.88,15.88,0,0,1-5.256,3.231l.963,1.249c.1-.1.2-.206.307-.3.053-.049.106-.1.161-.142.013-.011.2-.157.061-.053a5.764,5.764,0,0,1,.711-.46c.1-.057.208-.111.314-.159.019-.008.231-.1.068-.034.066-.028.131-.053.2-.078a6.754,6.754,0,0,1,.812-.246,6.824,6.824,0,0,1,3.006.043,7.278,7.278,0,0,1,.766.231l.2.076c.015.007.235.1.078.032.134.059.265.121.394.186a7.2,7.2,0,0,1,.719.422c.11.074.218.15.325.231-.134-.1.055.047.065.055.066.053.13.108.191.165a8.84,8.84,0,0,1,.677.674c.091.1.18.2.265.308,0,0,.163.206.074.091.064.083.127.17.186.257a8.229,8.229,0,0,1,.458.725c.064.113.123.225.18.339.034.068.068.138.1.206.011.025.131.3.072.157a8.511,8.511,0,0,1,.492,1.656c.028.148.053.294.074.445-.019-.144,0-.015,0,.013.008.074.017.151.023.225.028.3.042.6.042.905,0,.28-.011.56-.034.837-.013.153-.03.305-.047.458-.028.25.028-.157-.013.093-.013.076-.024.153-.036.229a12.759,12.759,0,0,1-.45,1.821c-.091.276-.189.551-.3.821s-.18.435-.338.761c-.235.486-.5.961-.774,1.423q-.439.732-.94,1.429-.133.188-.274.375c-.038.053-.078.1-.117.155-.089.119.113-.142-.042.055q-.293.372-.6.736a18.644,18.644,0,0,1-1.292,1.365c-.221.212-.448.416-.681.615-.1.085-.2.169-.305.252-.187.15-.144.119-.337.261a11.509,11.509,0,0,1-1.5.941c-.111.057-.223.115-.335.167l-.2.093c-.221.1.142-.053-.083.036a8.111,8.111,0,0,1-.829.284,6.875,6.875,0,0,1-.772.172c-.023,0-.259.032-.072.011-.07.009-.142.015-.212.021-.142.013-.284.019-.428.021a4.475,4.475,0,0,1-.45-.015c-.019,0-.263-.034-.085-.006-.049-.009-.1-.015-.147-.026a3.95,3.95,0,0,1-.838-.248c.159.068-.057-.03-.072-.038-.064-.032-.127-.066-.191-.1-.125-.07-.246-.146-.365-.227l-.117-.082c.136.1-.049-.043-.062-.055a3.989,3.989,0,0,1-.361-.348c-.032-.036-.063-.07-.1-.108-.011-.011-.159-.2-.057-.064a3.691,3.691,0,0,1-.244-.36c-.064-.1-.123-.212-.178-.32-.034-.066-.066-.134-.093-.2.062.144-.046-.131-.055-.159a6.483,6.483,0,0,1,.134-4.047c.1-.325.214-.643.335-.956.057-.151.117-.3.178-.449.03-.074.062-.149.091-.223a.869.869,0,0,1,.045-.106c.25-.575.515-1.141.806-1.7a25,25,0,0,1,1.93-3.127c.352-.486.615-.821,1.042-1.321q.586-.687,1.222-1.325t1.322-1.228c.24-.206.481-.4.728-.6l.123-.1c-.117.091.087-.065.089-.068.146-.11.295-.22.446-.326a22.779,22.779,0,0,1,3.135-1.889c.53-.263,1.054-.5,1.5-.678q.643-.258,1.3-.471a20.646,20.646,0,0,1,2.813-.706c.223-.038.448-.074.673-.1-.217.03.1-.011.155-.017.142-.017.284-.032.429-.045.464-.04.929-.064,1.4-.061a12.584,12.584,0,0,1,1.362.078l.174.021c-.223-.028-.024,0,.019,0,.1.015.191.03.286.047.225.04.45.089.672.144s.437.119.651.191c.089.03.176.061.265.093.053.019.1.041.157.059.034.013.07.028.1.043l-.036-.015a8.06,8.06,0,0,1,1.115.608c.076.051.153.1.227.159.032.023.182.142.017.008.045.034.087.07.13.1a6.319,6.319,0,0,1,.5.454c.147.148.286.305.42.466.024.03.142.186.019.021.036.047.07.093.1.142.07.1.136.195.2.295.121.188.234.381.338.581.057.112.115.225.167.339.028.059.053.117.079.176-.076-.174.011.028.019.051a9.482,9.482,0,0,1,.464,1.579,8.682,8.682,0,0,1,.165,1.984,9.01,9.01,0,0,1-.24,1.936,11.375,11.375,0,0,1-1.559,3.727c-.142.225-.293.447-.448.663-.082.117-.17.234-.257.348-.142.189.1-.119-.051.066-.045.055-.089.112-.134.167a15.7,15.7,0,0,1-1.133,1.249c-.377.375-.774.73-1.186,1.069-.089.074-.178.146-.269.216-.015.013-.2.155-.057.047-.055.042-.11.085-.165.125q-.331.251-.675.485a27.76,27.76,0,0,1-2.745,1.656c-1.943,1.037-3.971,1.9-5.976,2.811-4.1,1.855-8.22,4-10.9,7.749A12.762,12.762,0,0,0,252.9,308a9.931,9.931,0,0,0,3.161,6.782,8.465,8.465,0,0,0,3.184,1.83.8.8,0,1,0,.422-1.533c-.146-.044-.293-.093-.437-.148-.072-.028-.144-.055-.214-.085.146.064-.083-.04-.091-.042a7.226,7.226,0,0,1-.8-.439c-.13-.081-.257-.165-.38-.255-.061-.044-.123-.089-.184-.136.123.1-.074-.061-.078-.065a8.192,8.192,0,0,1-.677-.624,8.6,8.6,0,0,1-.609-.7c.08.1-.021-.03-.038-.055-.038-.051-.076-.1-.113-.157q-.156-.222-.3-.451a8.333,8.333,0,0,1-.431-.78c-.064-.127-.123-.256-.18-.388.064.144-.036-.091-.038-.1-.038-.1-.074-.193-.11-.29-.1-.267-.18-.541-.25-.816-.038-.151-.072-.3-.1-.454-.015-.076-.03-.153-.042-.229,0-.028-.051-.333-.03-.171a9.691,9.691,0,0,1-.041-2.118,11.448,11.448,0,0,1,1.076-3.78,13.11,13.11,0,0,1,2.24-3.258c.382-.411.787-.8,1.207-1.172.193-.17.388-.333.588-.494l.163-.132c.015-.013.2-.153.059-.047.129-.1.259-.2.39-.292a34.269,34.269,0,0,1,5.816-3.275c4.083-1.9,8.419-3.513,11.822-6.561a14.978,14.978,0,0,0,4.281-6.355,11.084,11.084,0,0,0-.331-8.088,7.742,7.742,0,0,0-4.251-3.939,12.06,12.06,0,0,0-5.649-.613,22.705,22.705,0,0,0-12.452,5.6,24.634,24.634,0,0,0-4.832,5.817,27.059,27.059,0,0,0-1.767,3.534,11.685,11.685,0,0,0-1.059,4.4,5.849,5.849,0,0,0,1.406,3.984,5.134,5.134,0,0,0,3.337,1.641,7.425,7.425,0,0,0,3.657-.714,12.626,12.626,0,0,0,3.186-2.1,20.535,20.535,0,0,0,4.554-5.79,13.162,13.162,0,0,0,1.676-7.386,9.4,9.4,0,0,0-3.7-6.659,8.238,8.238,0,0,0-7-1.246,6.641,6.641,0,0,0-2.991,1.793.8.8,0,0,0-.061,1.043.812.812,0,0,0,1.026.206,18.017,18.017,0,0,0,5.269-3.167,6.991,6.991,0,0,0,2.259-5.23,5.006,5.006,0,0,0-2.841-4.3,7.163,7.163,0,0,0-4.732-.2,19.506,19.506,0,0,0-4.777,2.046.808.808,0,0,0-.286,1.087A.791.791,0,0,0,252.885,263.243Zm0,0" transform="translate(0 -228.572)" fill="#e67e22"/>
        <path id="Path_83" data-name="Path 83" d="M441.267,245.478a.778.778,0,0,0,.028-.466.758.758,0,0,0-.411-.479.606.606,0,0,0-.119-.189.791.791,0,0,0-.853-.151c-.063.015-.129.034-.193.053a1.192,1.192,0,0,0-.17.032,1.588,1.588,0,0,0-.963.757l.062.034a.558.558,0,0,0-.144.136,1.626,1.626,0,0,0,.271,1.745,1.56,1.56,0,0,0,1.793.367A1.533,1.533,0,0,0,441.267,245.478Zm0,0" transform="translate(-167.241 -214.808)" fill="#e67e22"/>
        <path id="Path_84" data-name="Path 84" d="M435.251,238.922a1.539,1.539,0,0,0-.751-1.842l.286.286a1.389,1.389,0,0,0-.948-.746,1.8,1.8,0,0,0-.713-.011,3.276,3.276,0,0,0-.4.106l.212-.028a2.216,2.216,0,0,0-.564.121,2.28,2.28,0,0,0-.5.252,2.608,2.608,0,0,0-.757.81.8.8,0,0,0,.286,1.088c.021.011.04.021.061.034v-1.374a1.521,1.521,0,0,0-.473.486,1.5,1.5,0,0,0-.176.462,2.472,2.472,0,0,0,.019,1,2.729,2.729,0,0,0,.3.77,2.316,2.316,0,0,0,.658.717,2.388,2.388,0,0,0,1.808.388,2.1,2.1,0,0,0,1.436-1.024,2.386,2.386,0,0,0,.219-1.919.843.843,0,0,0-.365-.475.815.815,0,0,0-.613-.081.805.805,0,0,0-.556.977,1.487,1.487,0,0,1,.066.271c-.009-.07-.019-.14-.028-.212a1.648,1.648,0,0,1,0,.422c.009-.07.019-.14.028-.212a1.749,1.749,0,0,1-.119.437c.028-.063.053-.127.08-.191a1.635,1.635,0,0,1-.2.34c.043-.053.083-.108.125-.161a1.477,1.477,0,0,1-.236.237c.053-.042.108-.082.161-.125a1.369,1.369,0,0,1-.269.159l.191-.08a1.549,1.549,0,0,1-.376.1l.212-.028a1.73,1.73,0,0,1-.42,0l.212.028a1.775,1.775,0,0,1-.405-.112l.191.08a1.584,1.584,0,0,1-.337-.2c.053.043.108.083.161.125a1.438,1.438,0,0,1-.244-.237c.043.053.083.108.125.161a1.87,1.87,0,0,1-.227-.394c.027.063.053.127.08.191a2.111,2.111,0,0,1-.142-.509c.009.07.019.14.028.212a1.558,1.558,0,0,1,0-.4c-.009.07-.019.14-.028.212a1.24,1.24,0,0,1,.059-.234c-.028.064-.053.128-.08.191a.862.862,0,0,1,.087-.159c-.043.053-.083.108-.125.161a.585.585,0,0,1,.117-.114c-.053.042-.108.082-.161.125a.222.222,0,0,0,.03-.021.823.823,0,0,0,.394-.687.8.8,0,0,0-.394-.687c-.021-.011-.04-.021-.061-.034l.286,1.087a1.786,1.786,0,0,1,.125-.188c-.043.053-.083.108-.125.161a1.786,1.786,0,0,1,.294-.3c-.053.042-.108.082-.161.125a1.706,1.706,0,0,1,.331-.2l-.191.081a1.518,1.518,0,0,1,.348-.1l-.212.028a2.511,2.511,0,0,0,.437-.085,1.381,1.381,0,0,1,.21-.053l-.212.028a1.019,1.019,0,0,1,.214,0l-.212-.028a.968.968,0,0,1,.2.053l-.191-.08a.873.873,0,0,1,.155.091c-.053-.042-.108-.082-.161-.125a.911.911,0,0,1,.11.11c-.042-.053-.082-.108-.125-.161a.7.7,0,0,1,.051.08.851.851,0,0,0,.231.282c.076.059.161.1.238.163-.053-.042-.108-.082-.161-.125a.859.859,0,0,1,.129.132c-.042-.053-.082-.108-.125-.161a.817.817,0,0,1,.093.159c-.028-.064-.053-.127-.08-.191a.878.878,0,0,1,.046.161c-.008-.07-.019-.14-.027-.212a.821.821,0,0,1,0,.216c.009-.07.019-.14.028-.212a.962.962,0,0,1-.045.176.794.794,0,0,0,.556.977A.814.814,0,0,0,435.251,238.922Zm0,0" transform="translate(-160.457 -208.04)" fill="#e67e22"/>
      </g>
      <text id="Spirituality" transform="translate(687 3078)" fill="#242424" font-size="23" font-family="HelveticaNeue, Helvetica Neue"><tspan x="-53" y="0">Spirituality</tspan></text>
    </g>
  </g>
</svg>
