<svg xmlns="http://www.w3.org/2000/svg" width="138.534" height="57.646" viewBox="0 0 138.534 57.646">
  <g id="c5547f5eb440450" transform="translate(-54 -36)">
    <path id="Path_4021" data-name="Path 4021" d="M368.292,85.225c0-9.851-4.772-17.625-13.892-17.625-9.159,0-14.7,7.773-14.7,17.548,0,11.583,6.542,17.432,15.931,17.432a21.457,21.457,0,0,0,10.659-2.5v-7.7a20.434,20.434,0,0,1-9.428,2.116c-3.733,0-7.042-1.308-7.465-5.849h18.818C368.215,88.149,368.292,86.148,368.292,85.225Zm-19.01-3.656c0-4.348,2.655-6.157,5.08-6.157,2.347,0,4.849,1.809,4.849,6.157Z" transform="translate(-175.758 -19.44)" fill="#32325d" fill-rule="evenodd"/>
    <path id="Path_4022" data-name="Path 4022" d="M274.709,67.6a10.871,10.871,0,0,0-7.542,3l-.5-2.386H258.2v44.87l9.62-2.04.038-10.89a10.837,10.837,0,0,0,6.811,2.424c6.888,0,13.161-5.541,13.161-17.74C287.792,73.68,281.443,67.6,274.709,67.6ZM272.4,94.114a5.752,5.752,0,0,1-4.541-1.809l-.038-14.277a5.727,5.727,0,0,1,4.579-1.886c3.5,0,5.926,3.925,5.926,8.966C278.326,90.266,275.94,94.114,272.4,94.114Z" transform="translate(-125.621 -19.44)" fill="#32325d" fill-rule="evenodd"/>
    <path id="Path_4023" data-name="Path 4023" d="M223.8,45.89l9.659-2.078V36L223.8,38.04Z" transform="translate(-104.458)" fill="#32325d" fill-rule="evenodd"/>
    <rect id="Rectangle_195" data-name="Rectangle 195" width="9.659" height="33.671" transform="translate(119.342 48.814)" fill="#32325d"/>
    <path id="Path_4024" data-name="Path 4024" d="M182.628,71.512l-.616-2.848H173.7v33.671h9.62V79.516c2.27-2.963,6.119-2.424,7.312-2V68.664C189.4,68.2,184.9,67.356,182.628,71.512Z" transform="translate(-73.637 -19.85)" fill="#32325d" fill-rule="evenodd"/>
    <path id="Path_4025" data-name="Path 4025" d="M131.828,47.6l-9.39,2L122.4,80.425a9.669,9.669,0,0,0,9.967,9.89,14.863,14.863,0,0,0,6.734-1.27V81.233c-1.231.5-7.312,2.27-7.312-3.425V64.147H139.1v-8.2H131.79Z" transform="translate(-42.079 -7.136)" fill="#32325d" fill-rule="evenodd"/>
    <path id="Path_4026" data-name="Path 4026" d="M63.736,78.029c0-1.5,1.231-2.078,3.271-2.078a21.464,21.464,0,0,1,9.543,2.463V69.37a25.377,25.377,0,0,0-9.543-1.77C59.2,67.6,54,71.679,54,78.49,54,89.111,68.623,87.418,68.623,92c0,1.77-1.539,2.347-3.694,2.347a23.953,23.953,0,0,1-10.505-3.079v9.159a26.676,26.676,0,0,0,10.505,2.193c8,0,13.507-3.964,13.507-10.852C78.4,80.3,63.736,82.338,63.736,78.029Z" transform="translate(0 -19.44)" fill="#32325d" fill-rule="evenodd"/>
  </g>
</svg>
