<svg xmlns="http://www.w3.org/2000/svg" width="378.743" height="559.956" viewBox="0 0 378.743 559.956">
  <g id="_14" data-name="14" transform="translate(-134.932 -2.952)">
    <path id="Path_4018" data-name="Path 4018" d="M298.607,251.938c-17.465,29.469-52.826,47.986-87.026,40.957a85.547,85.547,0,0,1-66.5-67.51c-3.479-18.518.622-36.929,10.771-52.674,6.872-10.651,16.554-18.878,27.279-25.452a3.519,3.519,0,0,0,3.359,0c15.635-8.4,33.245-13.653,51.152-11.442,17.13,2.13,34.489,9.792,46.849,21.88C309.724,182.333,316.8,221.223,298.607,251.938Zm1.721-93.131c-13.353-18.351-33.207-30.486-55.837-33.079-18.913-2.162-39.342.466-55.575,10.76-31.274,9.814-50.639,46.817-53.653,77.624-3.837,39.081,26.2,73.463,61.481,85.943C234,313.242,276.051,299.027,299.85,267.98c23.371-30.486,23.012-78.246.477-109.173" transform="translate(0 -36.859)" fill="#fbf3e8"/>
    <path id="Path_4019" data-name="Path 4019" d="M514.168,558.032c-12.718-21.078-25.845-41.867-37.8-63.409a714.04,714.04,0,0,1-31.751-64.868,665.59,665.59,0,0,1-24.863-68.146c-7.411-24.315-14.166-49.254-16.377-74.646-2.331-26.66,1.961-51.981,10.422-77.229a555.324,555.324,0,0,1,27.77-68.121A351.184,351.184,0,0,1,480.279,80.3c4.84-6.231,14.106-16.882,4.518-23.731-3.73-2.667-7.8-1.434-11.022,1.29-4.963,4.186-9.4,8.93-14.466,13.021-.251.2-3.346,2.7-3.515,2.353-.346-.7,2.476-3.788,3.013-4.529q3.19-4.3,6.373-8.609c3.932-5.306,8.559-10.509,11.654-16.366,2.38-4.507,3.359-9.732.8-14.406-2.165-3.957-6.419-6.6-10.735-4.567-8,3.766-12.731,11.5-17.476,18.556-2.882,4.254-5.751,8.739-9.527,12.061q6.7-14.5,13.509-29c2.138-4.543,5.568-9.923,3.215-15.052-1.7-3.706-5.511-5.32-9.446-4.936-9.157.883-14.618,9.634-18.935,16.759-3.441,5.691-6.73,11.837-11.379,16.535.788-2.558,1.59-5.118,2.427-7.651,1.756-5.309,4.172-10.594,5.426-16.031.788-3.479.993-7.365-1.459-10.258a8.025,8.025,0,0,0-9.994-1.794c-3.706,1.865-6.2,5.571-7.984,9.195-2.536,5.14-4.843,10.4-7.079,15.674-3.43,8.129-6.6,16.342-9.394,24.71a41.6,41.6,0,0,0-1.854-5.189c-3.133-7.076-8.821-13.2-17.059-13.127-6.683.049-14.01,4.03-15.014,11.155-.575,4.063,1.134,7.769,3.335,11.068a20.411,20.411,0,0,1,3.695,14.5c-.766,9.337-3.062,18.218,1.183,27.1,2.211,4.638,5.522,8.619,7.087,13.569,1.83,5.762,1.71,11.99,1.042,17.931-4.041,36.141-22.619,71.5-46.467,98.449A195.078,195.078,0,0,1,233.136,287.3c-22.987,6.67-48.365,8.284-68.748,21.937-16.268,10.891-29.812,29.133-25.629,49.636.537,2.607,4.483,1.494,3.981-1.1-3.635-19.093,10.52-37,26.968-44.951,18.924-9.121,40.621-10.089,60.729-15.194,32.5-8.273,62.329-25.932,86.751-48.766a208.174,208.174,0,0,0,54.487-83.326c5.655-16.331,11.813-36.523,7.461-53.762-2.331-9.206-10.065-15.971-9.792-25.834.254-8.609,3.324-17.359.515-25.872A25.34,25.34,0,0,0,366.8,54.08c-1.243-1.854-3.79-4.267-3.706-6.613.1-3.455,5.055-4.889,7.842-4.769,10.016.442,11.534,14.537,13.209,21.853,1,4.4,3.059,7.556,7.351,9.29,3.921,1.59,7.411,2.727,10.435,5.846a21.106,21.106,0,0,1,3.861,23.181c-1.494,3.193,2.787,7.411,5.345,4.112,9.5-12.219,3.981-32.266-10.531-38.063-1.961-.791-3.97-.837-5.942-1.459a4.6,4.6,0,0,1-3.013-2.416,3.459,3.459,0,0,0,.6-1.063c5.606-16.031,11.679-31.98,19.319-47.163.848-1.7,4.985-8.835,6.645-4.865,1.077,2.582-1.865,8.2-2.629,10.615-2.618,8.344-5.465,16.593-8.369,24.841-1.123,3.182,2.607,5.023,5.1,3.924C427,44.886,430.753,28.127,441.428,17.558c1.11-1.088,6.274-5.1,7.962-3.119,1.254,1.481-2.021,6.634-2.656,8.033-1.148,2.511-2.282,5.034-3.43,7.556-4.818,10.615-9.743,21.185-14.667,31.751a3.847,3.847,0,0,0,4.278,5.571c15.96-3.264,20.383-21.637,30.927-31.691,2.021-1.925,6.2-6.326,7.447-1.759,1.423,5.3-6.228,12.554-9.015,16.271q-5.358,7.137-10.711,14.3c-2.773,3.717-6.9,7.938-4.158,12.862,2.056,3.719,6.681,5.1,10.58,3.886,4.949-1.554,8.45-6.443,12-9.934,2.165-2.116,4.412-4.137,6.683-6.146,1.074-.954,2.869-3.73,4.327-1.243.608,1.042-.7,2.907-1.2,3.73-3.01,5.009-7.493,9.47-11.044,14.13-14.07,18.567-25.632,39.56-36.1,60.325a512.139,512.139,0,0,0-28.285,66.842c-7.96,23.622-12.361,47.806-10.962,72.792,1.434,25.381,7.45,50.32,14.417,74.671a673.223,673.223,0,0,0,22.941,66.733c19.726,48.943,44.6,97.96,78.4,138.775,2.331,2.82,6.85-.813,5.009-3.861" transform="translate(-0.924)" fill="#fbf3e8"/>
    <path id="Path_4020" data-name="Path 4020" d="M425.644,407.341c-.155,7.771-3.409,15.3-6.075,22.488-2.187,5.882-4.483,11.728-6.776,17.574a128.949,128.949,0,0,0-10.234-8.142c-5.009-3.586-10.877-6.348-15.5-10.425-3.657-3.215-7.567-11.393-.417-13.173,4.971-1.232,10.626,2.738,14.092,6.443-.035.286-.071.562-.1.837-.548,4.663,7.521,5.8,8.249,1.123,1.017-6.574,1.961-13.6,5.129-19.559,1.29-2.438,4.1-7.482,7.422-6.85C425.39,398.424,425.715,404.292,425.644,407.341Zm5.1-13.509c-6.143-7.962-15.933-5.917-21.528,1.4-4.494,5.9-6.419,12.936-7.567,20.107a19.63,19.63,0,0,0-4.3-4.434,18.04,18.04,0,0,0-10.555-3.55,13.724,13.724,0,0,0-13.678,14.392c.251,8.393,6.623,14.37,13.2,18.627,8.69,5.62,17.168,11.117,25.081,17.836a4.529,4.529,0,0,0,7.447-1.961c4.066-11.188,8.51-22.283,12.325-33.556,2.964-8.753,5.786-20.814-.42-28.861" transform="translate(-71.915 -116.481)" fill="#fbf3e8"/>
  </g>
</svg>
