<svg xmlns="http://www.w3.org/2000/svg" xmlns:xlink="http://www.w3.org/1999/xlink" width="2058.615" height="30.606" viewBox="0 0 2058.615 30.606">
  <defs>
    <clipPath id="clip-path">
      <path id="Path_19" data-name="Path 19" d="M22,409H55.683v21.909H22Zm0,0" transform="translate(-22 -409)" fill="#fbf3e8"/>
    </clipPath>
    <clipPath id="clip-path-2">
      <path id="Path_21" data-name="Path 21" d="M7,395.574H45.865V426.18H7Zm0,0" transform="translate(-7 -395.574)" fill="#fbf3e8"/>
    </clipPath>
    <clipPath id="clip-path-3">
      <path id="Path_23" data-name="Path 23" d="M89,409h33.683v21.909H89Zm0,0" transform="translate(-89 -409)" fill="#fbf3e8"/>
    </clipPath>
    <clipPath id="clip-path-4">
      <path id="Path_25" data-name="Path 25" d="M73,395.574h38.865V426.18H73Zm0,0" transform="translate(-73 -395.574)" fill="#fbf3e8"/>
    </clipPath>
    <clipPath id="clip-path-5">
      <path id="Path_27" data-name="Path 27" d="M155,409h33.683v21.909H155Zm0,0" transform="translate(-155 -409)" fill="#fbf3e8"/>
    </clipPath>
    <clipPath id="clip-path-6">
      <path id="Path_29" data-name="Path 29" d="M140,395.574h38.217V426.18H140Zm0,0" transform="translate(-140 -395.574)" fill="#fbf3e8"/>
    </clipPath>
    <clipPath id="clip-path-7">
      <path id="Path_31" data-name="Path 31" d="M221,409h33.683v21.909H221Zm0,0" transform="translate(-221 -409)" fill="#fbf3e8"/>
    </clipPath>
    <clipPath id="clip-path-8">
      <path id="Path_33" data-name="Path 33" d="M206,395.574h38.865V426.18H206Zm0,0" transform="translate(-206 -395.574)" fill="#fbf3e8"/>
    </clipPath>
    <clipPath id="clip-path-9">
      <path id="Path_35" data-name="Path 35" d="M287,409h33.683v21.909H287Zm0,0" transform="translate(-287 -409)" fill="#fbf3e8"/>
    </clipPath>
    <clipPath id="clip-path-10">
      <path id="Path_37" data-name="Path 37" d="M272,395.574h38.865V426.18H272Zm0,0" transform="translate(-272 -395.574)" fill="#fbf3e8"/>
    </clipPath>
    <clipPath id="clip-path-11">
      <path id="Path_39" data-name="Path 39" d="M354,409h33.683v21.909H354Zm0,0" transform="translate(-354 -409)" fill="#fbf3e8"/>
    </clipPath>
    <clipPath id="clip-path-12">
      <path id="Path_41" data-name="Path 41" d="M338,395.574h38.865V426.18H338Zm0,0" transform="translate(-338 -395.574)" fill="#fbf3e8"/>
    </clipPath>
    <clipPath id="clip-path-13">
      <path id="Path_43" data-name="Path 43" d="M420,409h33.683v21.909H420Zm0,0" transform="translate(-420 -409)" fill="#fbf3e8"/>
    </clipPath>
    <clipPath id="clip-path-14">
      <path id="Path_45" data-name="Path 45" d="M405,395.574h38.217V426.18H405Zm0,0" transform="translate(-405 -395.574)" fill="#fbf3e8"/>
    </clipPath>
    <clipPath id="clip-path-15">
      <path id="Path_47" data-name="Path 47" d="M486,409h33.683v21.909H486Zm0,0" transform="translate(-486 -409)" fill="#fbf3e8"/>
    </clipPath>
    <clipPath id="clip-path-16">
      <path id="Path_49" data-name="Path 49" d="M471,395.574h38.217V426.18H471Zm0,0" transform="translate(-471 -395.574)" fill="#fbf3e8"/>
    </clipPath>
    <clipPath id="clip-path-17">
      <path id="Path_51" data-name="Path 51" d="M552,409h33.683v21.909H552Zm0,0" transform="translate(-552 -409)" fill="#fbf3e8"/>
    </clipPath>
    <clipPath id="clip-path-18">
      <path id="Path_53" data-name="Path 53" d="M537,395.574h38.865V426.18H537Zm0,0" transform="translate(-537 -395.574)" fill="#fbf3e8"/>
    </clipPath>
    <clipPath id="clip-path-19">
      <path id="Path_55" data-name="Path 55" d="M618,409h33.683v21.909H618Zm0,0" transform="translate(-618 -409)" fill="#fbf3e8"/>
    </clipPath>
    <clipPath id="clip-path-20">
      <path id="Path_57" data-name="Path 57" d="M603,395.574h38.865V426.18H603Zm0,0" transform="translate(-603 -395.574)" fill="#fbf3e8"/>
    </clipPath>
    <clipPath id="clip-path-21">
      <path id="Path_59" data-name="Path 59" d="M685,409h33.683v21.909H685Zm0,0" transform="translate(-685 -409)" fill="#fbf3e8"/>
    </clipPath>
    <clipPath id="clip-path-22">
      <path id="Path_61" data-name="Path 61" d="M669,395.574h38.865V426.18H669Zm0,0" transform="translate(-669 -395.574)" fill="#fbf3e8"/>
    </clipPath>
    <clipPath id="clip-path-23">
      <path id="Path_63" data-name="Path 63" d="M751,409h33.682v21.909H751Zm0,0" transform="translate(-751 -409)" fill="#fbf3e8"/>
    </clipPath>
    <clipPath id="clip-path-24">
      <path id="Path_65" data-name="Path 65" d="M736,395.574h38.217V426.18H736Zm0,0" transform="translate(-736 -395.574)" fill="#fbf3e8"/>
    </clipPath>
  </defs>
  <g id="Group_75" data-name="Group 75" transform="translate(0 -3347.75)">
    <g id="border" transform="translate(0 3347.75)">
      <g id="Group_43" data-name="Group 43" transform="translate(9.716 8.696)" clip-path="url(#clip-path)">
        <path id="Path_18" data-name="Path 18" d="M55.939,426.24H27.646V413.847H41.853v-4.742H22.93v21.882h33.01V426.24" transform="translate(-22.327 -409.037)" fill="#fbf3e8"/>
      </g>
      <g id="Group_44" data-name="Group 44" transform="translate(0 0)" clip-path="url(#clip-path-2)">
        <path id="Path_20" data-name="Path 20" d="M12.384,426.2V400.428h28.6v12.393h-.018v.005H26.774v4.744H45.7V395.684H7.668V426.2h4.716" transform="translate(-7.235 -395.613)" fill="#fbf3e8"/>
      </g>
      <g id="Group_45" data-name="Group 45" transform="translate(53.115 8.696)" clip-path="url(#clip-path-3)">
        <path id="Path_22" data-name="Path 22" d="M122.159,426.24H93.866V413.847h14.207v-4.742H89.152v21.882h33.007V426.24" transform="translate(-89.054 -409.037)" fill="#fbf3e8"/>
      </g>
      <g id="Group_46" data-name="Group 46" transform="translate(42.751 0)" clip-path="url(#clip-path-4)">
        <path id="Path_24" data-name="Path 24" d="M78.6,426.2V400.428h28.6v12.393h-.018v.005H93v4.744h18.921V395.684H73.891V426.2H78.6" transform="translate(-73.314 -395.613)" fill="#fbf3e8"/>
      </g>
      <g id="Group_47" data-name="Group 47" transform="translate(95.866 8.696)" clip-path="url(#clip-path-5)">
        <path id="Path_26" data-name="Path 26" d="M188.383,426.195H160.093V413.8H174.3v-4.744H155.379v21.884h33v-4.744" transform="translate(-155.133 -409.019)" fill="#fbf3e8"/>
      </g>
      <g id="Group_48" data-name="Group 48" transform="translate(86.15 0)" clip-path="url(#clip-path-6)">
        <path id="Path_28" data-name="Path 28" d="M144.826,426.149V400.381h28.6v12.393H159.215v4.747h18.926V395.637H140.109v30.512h4.716" transform="translate(-140.039 -395.596)" fill="#fbf3e8"/>
      </g>
      <g id="Group_49" data-name="Group 49" transform="translate(138.617 8.696)" clip-path="url(#clip-path-7)">
        <path id="Path_30" data-name="Path 30" d="M254.607,426.195H226.314V413.8h14.207v-4.744H221.6v21.884h33.01v-4.744" transform="translate(-221.211 -409.019)" fill="#fbf3e8"/>
      </g>
      <g id="Group_50" data-name="Group 50" transform="translate(128.901 0)" clip-path="url(#clip-path-8)">
        <path id="Path_32" data-name="Path 32" d="M211.051,426.149V400.381h28.6v12.393h-14.21v4.747h18.926V395.637H206.332v30.512h4.719" transform="translate(-206.117 -395.596)" fill="#fbf3e8"/>
      </g>
      <g id="Group_51" data-name="Group 51" transform="translate(181.368 8.696)" clip-path="url(#clip-path-9)">
        <path id="Path_34" data-name="Path 34" d="M320.83,426.24H292.537V413.847h14.207v-4.742H287.82v21.882h33.01V426.24" transform="translate(-287.289 -409.037)" fill="#fbf3e8"/>
      </g>
      <g id="Group_52" data-name="Group 52" transform="translate(171.652 0)" clip-path="url(#clip-path-10)">
        <path id="Path_36" data-name="Path 36" d="M277.275,426.2V400.428h28.6v12.393h-.018v.005h-14.19v4.744h18.921V395.684H272.559V426.2h4.716" transform="translate(-272.197 -395.613)" fill="#fbf3e8"/>
      </g>
      <g id="Group_53" data-name="Group 53" transform="translate(224.767 8.696)" clip-path="url(#clip-path-11)">
        <path id="Path_38" data-name="Path 38" d="M387.053,426.24h-28.3V413.847h14.207v-4.742H354.043v21.882h33.01V426.24" transform="translate(-354.015 -409.037)" fill="#fbf3e8"/>
      </g>
      <g id="Group_54" data-name="Group 54" transform="translate(214.403 0)" clip-path="url(#clip-path-12)">
        <path id="Path_40" data-name="Path 40" d="M343.5,426.2V400.428h28.6v12.393h-.018v.005h-14.19v4.744h18.921V395.684H338.781V426.2H343.5" transform="translate(-338.275 -395.613)" fill="#fbf3e8"/>
      </g>
      <g id="Group_55" data-name="Group 55" transform="translate(267.518 8.696)" clip-path="url(#clip-path-13)">
        <path id="Path_42" data-name="Path 42" d="M453.274,426.195H424.983V413.8h14.207v-4.744H420.27v21.884h33v-4.744" transform="translate(-420.095 -409.019)" fill="#fbf3e8"/>
      </g>
      <g id="Group_56" data-name="Group 56" transform="translate(257.802 0)" clip-path="url(#clip-path-14)">
        <path id="Path_44" data-name="Path 44" d="M409.718,426.149V400.381h28.6v12.393H424.107v4.747h18.924V395.637H405v30.512h4.714" transform="translate(-405.001 -395.596)" fill="#fbf3e8"/>
      </g>
      <g id="Group_57" data-name="Group 57" transform="translate(310.269 8.696)" clip-path="url(#clip-path-15)">
        <path id="Path_46" data-name="Path 46" d="M519.5,426.195H491.2V413.8h14.207v-4.744H486.488v21.884H519.5v-4.744" transform="translate(-486.172 -409.019)" fill="#fbf3e8"/>
      </g>
      <g id="Group_58" data-name="Group 58" transform="translate(300.553 0)" clip-path="url(#clip-path-16)">
        <path id="Path_48" data-name="Path 48" d="M475.942,426.149V400.381h28.594v12.393H490.329v4.747h18.926V395.637H471.223v30.512h4.719" transform="translate(-471.078 -395.596)" fill="#fbf3e8"/>
      </g>
      <g id="Group_59" data-name="Group 59" transform="translate(353.02 8.696)" clip-path="url(#clip-path-17)">
        <path id="Path_50" data-name="Path 50" d="M585.721,426.24h-28.3V413.847h14.21v-4.742H552.711v21.882h33.01V426.24" transform="translate(-552.25 -409.037)" fill="#fbf3e8"/>
      </g>
      <g id="Group_60" data-name="Group 60" transform="translate(343.304 0)" clip-path="url(#clip-path-18)">
        <path id="Path_52" data-name="Path 52" d="M542.166,426.2V400.428h28.6v12.393h-.015v.005H556.555v4.744h18.924V395.684H537.449V426.2h4.716" transform="translate(-537.158 -395.613)" fill="#fbf3e8"/>
      </g>
      <g id="Group_61" data-name="Group 61" transform="translate(395.771 8.696)" clip-path="url(#clip-path-19)">
        <path id="Path_54" data-name="Path 54" d="M651.943,426.24h-28.3V413.847h14.207v-4.742H618.934v21.882h33.01V426.24" transform="translate(-618.329 -409.037)" fill="#fbf3e8"/>
      </g>
      <g id="Group_62" data-name="Group 62" transform="translate(386.055 0)" clip-path="url(#clip-path-20)">
        <path id="Path_56" data-name="Path 56" d="M608.386,426.2V400.428h28.6v12.393h-.018v.005h-14.19v4.744H641.7V395.684H603.672V426.2h4.714" transform="translate(-603.237 -395.613)" fill="#fbf3e8"/>
      </g>
      <g id="Group_63" data-name="Group 63" transform="translate(439.17 8.696)" clip-path="url(#clip-path-21)">
        <path id="Path_58" data-name="Path 58" d="M718.162,426.195H689.871V413.8h14.207v-4.744H685.152v21.884h33.01v-4.744" transform="translate(-685.054 -409.019)" fill="#fbf3e8"/>
      </g>
      <g id="Group_64" data-name="Group 64" transform="translate(428.806 0)" clip-path="url(#clip-path-22)">
        <path id="Path_60" data-name="Path 60" d="M674.608,426.149V400.381h28.6v12.393H689v4.747h18.921V395.637H669.894v30.512h4.714" transform="translate(-669.315 -395.596)" fill="#fbf3e8"/>
      </g>
      <g id="Group_65" data-name="Group 65" transform="translate(481.921 8.696)" clip-path="url(#clip-path-23)">
        <path id="Path_62" data-name="Path 62" d="M784.388,426.195H756.1V413.8H770.3v-4.744H751.379v21.884h33.01v-4.744" transform="translate(-751.133 -409.019)" fill="#fbf3e8"/>
      </g>
      <g id="Group_66" data-name="Group 66" transform="translate(472.205 0)" clip-path="url(#clip-path-24)">
        <path id="Path_64" data-name="Path 64" d="M740.832,426.149V400.381h28.594v12.393H755.219v4.747h18.926V395.637H736.113v30.512h4.719" transform="translate(-736.04 -395.596)" fill="#fbf3e8"/>
      </g>
    </g>
    <g id="border-2" data-name="border" transform="translate(513.703 3347.75)">
      <g id="Group_43-2" data-name="Group 43" transform="translate(9.716 8.696)" clip-path="url(#clip-path)">
        <path id="Path_18-2" data-name="Path 18" d="M55.939,426.24H27.646V413.847H41.853v-4.742H22.93v21.882h33.01V426.24" transform="translate(-22.327 -409.037)" fill="#fbf3e8"/>
      </g>
      <g id="Group_44-2" data-name="Group 44" transform="translate(0 0)" clip-path="url(#clip-path-2)">
        <path id="Path_20-2" data-name="Path 20" d="M12.384,426.2V400.428h28.6v12.393h-.018v.005H26.774v4.744H45.7V395.684H7.668V426.2h4.716" transform="translate(-7.235 -395.613)" fill="#fbf3e8"/>
      </g>
      <g id="Group_45-2" data-name="Group 45" transform="translate(53.115 8.696)" clip-path="url(#clip-path-3)">
        <path id="Path_22-2" data-name="Path 22" d="M122.159,426.24H93.866V413.847h14.207v-4.742H89.152v21.882h33.007V426.24" transform="translate(-89.054 -409.037)" fill="#fbf3e8"/>
      </g>
      <g id="Group_46-2" data-name="Group 46" transform="translate(42.751 0)" clip-path="url(#clip-path-4)">
        <path id="Path_24-2" data-name="Path 24" d="M78.6,426.2V400.428h28.6v12.393h-.018v.005H93v4.744h18.921V395.684H73.891V426.2H78.6" transform="translate(-73.314 -395.613)" fill="#fbf3e8"/>
      </g>
      <g id="Group_47-2" data-name="Group 47" transform="translate(95.866 8.696)" clip-path="url(#clip-path-5)">
        <path id="Path_26-2" data-name="Path 26" d="M188.383,426.195H160.093V413.8H174.3v-4.744H155.379v21.884h33v-4.744" transform="translate(-155.133 -409.019)" fill="#fbf3e8"/>
      </g>
      <g id="Group_48-2" data-name="Group 48" transform="translate(86.15 0)" clip-path="url(#clip-path-6)">
        <path id="Path_28-2" data-name="Path 28" d="M144.826,426.149V400.381h28.6v12.393H159.215v4.747h18.926V395.637H140.109v30.512h4.716" transform="translate(-140.039 -395.596)" fill="#fbf3e8"/>
      </g>
      <g id="Group_49-2" data-name="Group 49" transform="translate(138.617 8.696)" clip-path="url(#clip-path-7)">
        <path id="Path_30-2" data-name="Path 30" d="M254.607,426.195H226.314V413.8h14.207v-4.744H221.6v21.884h33.01v-4.744" transform="translate(-221.211 -409.019)" fill="#fbf3e8"/>
      </g>
      <g id="Group_50-2" data-name="Group 50" transform="translate(128.901 0)" clip-path="url(#clip-path-8)">
        <path id="Path_32-2" data-name="Path 32" d="M211.051,426.149V400.381h28.6v12.393h-14.21v4.747h18.926V395.637H206.332v30.512h4.719" transform="translate(-206.117 -395.596)" fill="#fbf3e8"/>
      </g>
      <g id="Group_51-2" data-name="Group 51" transform="translate(181.368 8.696)" clip-path="url(#clip-path-9)">
        <path id="Path_34-2" data-name="Path 34" d="M320.83,426.24H292.537V413.847h14.207v-4.742H287.82v21.882h33.01V426.24" transform="translate(-287.289 -409.037)" fill="#fbf3e8"/>
      </g>
      <g id="Group_52-2" data-name="Group 52" transform="translate(171.652 0)" clip-path="url(#clip-path-10)">
        <path id="Path_36-2" data-name="Path 36" d="M277.275,426.2V400.428h28.6v12.393h-.018v.005h-14.19v4.744h18.921V395.684H272.559V426.2h4.716" transform="translate(-272.197 -395.613)" fill="#fbf3e8"/>
      </g>
      <g id="Group_53-2" data-name="Group 53" transform="translate(224.767 8.696)" clip-path="url(#clip-path-11)">
        <path id="Path_38-2" data-name="Path 38" d="M387.053,426.24h-28.3V413.847h14.207v-4.742H354.043v21.882h33.01V426.24" transform="translate(-354.015 -409.037)" fill="#fbf3e8"/>
      </g>
      <g id="Group_54-2" data-name="Group 54" transform="translate(214.403 0)" clip-path="url(#clip-path-12)">
        <path id="Path_40-2" data-name="Path 40" d="M343.5,426.2V400.428h28.6v12.393h-.018v.005h-14.19v4.744h18.921V395.684H338.781V426.2H343.5" transform="translate(-338.275 -395.613)" fill="#fbf3e8"/>
      </g>
      <g id="Group_55-2" data-name="Group 55" transform="translate(267.518 8.696)" clip-path="url(#clip-path-13)">
        <path id="Path_42-2" data-name="Path 42" d="M453.274,426.195H424.983V413.8h14.207v-4.744H420.27v21.884h33v-4.744" transform="translate(-420.095 -409.019)" fill="#fbf3e8"/>
      </g>
      <g id="Group_56-2" data-name="Group 56" transform="translate(257.802 0)" clip-path="url(#clip-path-14)">
        <path id="Path_44-2" data-name="Path 44" d="M409.718,426.149V400.381h28.6v12.393H424.107v4.747h18.924V395.637H405v30.512h4.714" transform="translate(-405.001 -395.596)" fill="#fbf3e8"/>
      </g>
      <g id="Group_57-2" data-name="Group 57" transform="translate(310.269 8.696)" clip-path="url(#clip-path-15)">
        <path id="Path_46-2" data-name="Path 46" d="M519.5,426.195H491.2V413.8h14.207v-4.744H486.488v21.884H519.5v-4.744" transform="translate(-486.172 -409.019)" fill="#fbf3e8"/>
      </g>
      <g id="Group_58-2" data-name="Group 58" transform="translate(300.553 0)" clip-path="url(#clip-path-16)">
        <path id="Path_48-2" data-name="Path 48" d="M475.942,426.149V400.381h28.594v12.393H490.329v4.747h18.926V395.637H471.223v30.512h4.719" transform="translate(-471.078 -395.596)" fill="#fbf3e8"/>
      </g>
      <g id="Group_59-2" data-name="Group 59" transform="translate(353.02 8.696)" clip-path="url(#clip-path-17)">
        <path id="Path_50-2" data-name="Path 50" d="M585.721,426.24h-28.3V413.847h14.21v-4.742H552.711v21.882h33.01V426.24" transform="translate(-552.25 -409.037)" fill="#fbf3e8"/>
      </g>
      <g id="Group_60-2" data-name="Group 60" transform="translate(343.304 0)" clip-path="url(#clip-path-18)">
        <path id="Path_52-2" data-name="Path 52" d="M542.166,426.2V400.428h28.6v12.393h-.015v.005H556.555v4.744h18.924V395.684H537.449V426.2h4.716" transform="translate(-537.158 -395.613)" fill="#fbf3e8"/>
      </g>
      <g id="Group_61-2" data-name="Group 61" transform="translate(395.771 8.696)" clip-path="url(#clip-path-19)">
        <path id="Path_54-2" data-name="Path 54" d="M651.943,426.24h-28.3V413.847h14.207v-4.742H618.934v21.882h33.01V426.24" transform="translate(-618.329 -409.037)" fill="#fbf3e8"/>
      </g>
      <g id="Group_62-2" data-name="Group 62" transform="translate(386.055 0)" clip-path="url(#clip-path-20)">
        <path id="Path_56-2" data-name="Path 56" d="M608.386,426.2V400.428h28.6v12.393h-.018v.005h-14.19v4.744H641.7V395.684H603.672V426.2h4.714" transform="translate(-603.237 -395.613)" fill="#fbf3e8"/>
      </g>
      <g id="Group_63-2" data-name="Group 63" transform="translate(439.17 8.696)" clip-path="url(#clip-path-21)">
        <path id="Path_58-2" data-name="Path 58" d="M718.162,426.195H689.871V413.8h14.207v-4.744H685.152v21.884h33.01v-4.744" transform="translate(-685.054 -409.019)" fill="#fbf3e8"/>
      </g>
      <g id="Group_64-2" data-name="Group 64" transform="translate(428.806 0)" clip-path="url(#clip-path-22)">
        <path id="Path_60-2" data-name="Path 60" d="M674.608,426.149V400.381h28.6v12.393H689v4.747h18.921V395.637H669.894v30.512h4.714" transform="translate(-669.315 -395.596)" fill="#fbf3e8"/>
      </g>
      <g id="Group_65-2" data-name="Group 65" transform="translate(481.921 8.696)" clip-path="url(#clip-path-23)">
        <path id="Path_62-2" data-name="Path 62" d="M784.388,426.195H756.1V413.8H770.3v-4.744H751.379v21.884h33.01v-4.744" transform="translate(-751.133 -409.019)" fill="#fbf3e8"/>
      </g>
      <g id="Group_66-2" data-name="Group 66" transform="translate(472.205 0)" clip-path="url(#clip-path-24)">
        <path id="Path_64-2" data-name="Path 64" d="M740.832,426.149V400.381h28.594v12.393H755.219v4.747h18.926V395.637H736.113v30.512h4.719" transform="translate(-736.04 -395.596)" fill="#fbf3e8"/>
      </g>
    </g>
    <g id="border-3" data-name="border" transform="translate(1028.358 3347.75)">
      <g id="Group_43-3" data-name="Group 43" transform="translate(9.716 8.696)" clip-path="url(#clip-path)">
        <path id="Path_18-3" data-name="Path 18" d="M55.939,426.24H27.646V413.847H41.853v-4.742H22.93v21.882h33.01V426.24" transform="translate(-22.327 -409.037)" fill="#fbf3e8"/>
      </g>
      <g id="Group_44-3" data-name="Group 44" transform="translate(0 0)" clip-path="url(#clip-path-2)">
        <path id="Path_20-3" data-name="Path 20" d="M12.384,426.2V400.428h28.6v12.393h-.018v.005H26.774v4.744H45.7V395.684H7.668V426.2h4.716" transform="translate(-7.235 -395.613)" fill="#fbf3e8"/>
      </g>
      <g id="Group_45-3" data-name="Group 45" transform="translate(53.115 8.696)" clip-path="url(#clip-path-3)">
        <path id="Path_22-3" data-name="Path 22" d="M122.159,426.24H93.866V413.847h14.207v-4.742H89.152v21.882h33.007V426.24" transform="translate(-89.054 -409.037)" fill="#fbf3e8"/>
      </g>
      <g id="Group_46-3" data-name="Group 46" transform="translate(42.751 0)" clip-path="url(#clip-path-4)">
        <path id="Path_24-3" data-name="Path 24" d="M78.6,426.2V400.428h28.6v12.393h-.018v.005H93v4.744h18.921V395.684H73.891V426.2H78.6" transform="translate(-73.314 -395.613)" fill="#fbf3e8"/>
      </g>
      <g id="Group_47-3" data-name="Group 47" transform="translate(95.866 8.696)" clip-path="url(#clip-path-5)">
        <path id="Path_26-3" data-name="Path 26" d="M188.383,426.195H160.093V413.8H174.3v-4.744H155.379v21.884h33v-4.744" transform="translate(-155.133 -409.019)" fill="#fbf3e8"/>
      </g>
      <g id="Group_48-3" data-name="Group 48" transform="translate(86.15 0)" clip-path="url(#clip-path-6)">
        <path id="Path_28-3" data-name="Path 28" d="M144.826,426.149V400.381h28.6v12.393H159.215v4.747h18.926V395.637H140.109v30.512h4.716" transform="translate(-140.039 -395.596)" fill="#fbf3e8"/>
      </g>
      <g id="Group_49-3" data-name="Group 49" transform="translate(138.617 8.696)" clip-path="url(#clip-path-7)">
        <path id="Path_30-3" data-name="Path 30" d="M254.607,426.195H226.314V413.8h14.207v-4.744H221.6v21.884h33.01v-4.744" transform="translate(-221.211 -409.019)" fill="#fbf3e8"/>
      </g>
      <g id="Group_50-3" data-name="Group 50" transform="translate(128.901 0)" clip-path="url(#clip-path-8)">
        <path id="Path_32-3" data-name="Path 32" d="M211.051,426.149V400.381h28.6v12.393h-14.21v4.747h18.926V395.637H206.332v30.512h4.719" transform="translate(-206.117 -395.596)" fill="#fbf3e8"/>
      </g>
      <g id="Group_51-3" data-name="Group 51" transform="translate(181.368 8.696)" clip-path="url(#clip-path-9)">
        <path id="Path_34-3" data-name="Path 34" d="M320.83,426.24H292.537V413.847h14.207v-4.742H287.82v21.882h33.01V426.24" transform="translate(-287.289 -409.037)" fill="#fbf3e8"/>
      </g>
      <g id="Group_52-3" data-name="Group 52" transform="translate(171.652 0)" clip-path="url(#clip-path-10)">
        <path id="Path_36-3" data-name="Path 36" d="M277.275,426.2V400.428h28.6v12.393h-.018v.005h-14.19v4.744h18.921V395.684H272.559V426.2h4.716" transform="translate(-272.197 -395.613)" fill="#fbf3e8"/>
      </g>
      <g id="Group_53-3" data-name="Group 53" transform="translate(224.767 8.696)" clip-path="url(#clip-path-11)">
        <path id="Path_38-3" data-name="Path 38" d="M387.053,426.24h-28.3V413.847h14.207v-4.742H354.043v21.882h33.01V426.24" transform="translate(-354.015 -409.037)" fill="#fbf3e8"/>
      </g>
      <g id="Group_54-3" data-name="Group 54" transform="translate(214.403 0)" clip-path="url(#clip-path-12)">
        <path id="Path_40-3" data-name="Path 40" d="M343.5,426.2V400.428h28.6v12.393h-.018v.005h-14.19v4.744h18.921V395.684H338.781V426.2H343.5" transform="translate(-338.275 -395.613)" fill="#fbf3e8"/>
      </g>
      <g id="Group_55-3" data-name="Group 55" transform="translate(267.518 8.696)" clip-path="url(#clip-path-13)">
        <path id="Path_42-3" data-name="Path 42" d="M453.274,426.195H424.983V413.8h14.207v-4.744H420.27v21.884h33v-4.744" transform="translate(-420.095 -409.019)" fill="#fbf3e8"/>
      </g>
      <g id="Group_56-3" data-name="Group 56" transform="translate(257.802 0)" clip-path="url(#clip-path-14)">
        <path id="Path_44-3" data-name="Path 44" d="M409.718,426.149V400.381h28.6v12.393H424.107v4.747h18.924V395.637H405v30.512h4.714" transform="translate(-405.001 -395.596)" fill="#fbf3e8"/>
      </g>
      <g id="Group_57-3" data-name="Group 57" transform="translate(310.269 8.696)" clip-path="url(#clip-path-15)">
        <path id="Path_46-3" data-name="Path 46" d="M519.5,426.195H491.2V413.8h14.207v-4.744H486.488v21.884H519.5v-4.744" transform="translate(-486.172 -409.019)" fill="#fbf3e8"/>
      </g>
      <g id="Group_58-3" data-name="Group 58" transform="translate(300.553 0)" clip-path="url(#clip-path-16)">
        <path id="Path_48-3" data-name="Path 48" d="M475.942,426.149V400.381h28.594v12.393H490.329v4.747h18.926V395.637H471.223v30.512h4.719" transform="translate(-471.078 -395.596)" fill="#fbf3e8"/>
      </g>
      <g id="Group_59-3" data-name="Group 59" transform="translate(353.02 8.696)" clip-path="url(#clip-path-17)">
        <path id="Path_50-3" data-name="Path 50" d="M585.721,426.24h-28.3V413.847h14.21v-4.742H552.711v21.882h33.01V426.24" transform="translate(-552.25 -409.037)" fill="#fbf3e8"/>
      </g>
      <g id="Group_60-3" data-name="Group 60" transform="translate(343.304 0)" clip-path="url(#clip-path-18)">
        <path id="Path_52-3" data-name="Path 52" d="M542.166,426.2V400.428h28.6v12.393h-.015v.005H556.555v4.744h18.924V395.684H537.449V426.2h4.716" transform="translate(-537.158 -395.613)" fill="#fbf3e8"/>
      </g>
      <g id="Group_61-3" data-name="Group 61" transform="translate(395.771 8.696)" clip-path="url(#clip-path-19)">
        <path id="Path_54-3" data-name="Path 54" d="M651.943,426.24h-28.3V413.847h14.207v-4.742H618.934v21.882h33.01V426.24" transform="translate(-618.329 -409.037)" fill="#fbf3e8"/>
      </g>
      <g id="Group_62-3" data-name="Group 62" transform="translate(386.055 0)" clip-path="url(#clip-path-20)">
        <path id="Path_56-3" data-name="Path 56" d="M608.386,426.2V400.428h28.6v12.393h-.018v.005h-14.19v4.744H641.7V395.684H603.672V426.2h4.714" transform="translate(-603.237 -395.613)" fill="#fbf3e8"/>
      </g>
      <g id="Group_63-3" data-name="Group 63" transform="translate(439.17 8.696)" clip-path="url(#clip-path-21)">
        <path id="Path_58-3" data-name="Path 58" d="M718.162,426.195H689.871V413.8h14.207v-4.744H685.152v21.884h33.01v-4.744" transform="translate(-685.054 -409.019)" fill="#fbf3e8"/>
      </g>
      <g id="Group_64-3" data-name="Group 64" transform="translate(428.806 0)" clip-path="url(#clip-path-22)">
        <path id="Path_60-3" data-name="Path 60" d="M674.608,426.149V400.381h28.6v12.393H689v4.747h18.921V395.637H669.894v30.512h4.714" transform="translate(-669.315 -395.596)" fill="#fbf3e8"/>
      </g>
      <g id="Group_65-3" data-name="Group 65" transform="translate(481.921 8.696)" clip-path="url(#clip-path-23)">
        <path id="Path_62-3" data-name="Path 62" d="M784.388,426.195H756.1V413.8H770.3v-4.744H751.379v21.884h33.01v-4.744" transform="translate(-751.133 -409.019)" fill="#fbf3e8"/>
      </g>
      <g id="Group_66-3" data-name="Group 66" transform="translate(472.205 0)" clip-path="url(#clip-path-24)">
        <path id="Path_64-3" data-name="Path 64" d="M740.832,426.149V400.381h28.594v12.393H755.219v4.747h18.926V395.637H736.113v30.512h4.719" transform="translate(-736.04 -395.596)" fill="#fbf3e8"/>
      </g>
    </g>
    <g id="border-4" data-name="border" transform="translate(1543.011 3347.75)">
      <g id="Group_43-4" data-name="Group 43" transform="translate(9.716 8.696)" clip-path="url(#clip-path)">
        <path id="Path_18-4" data-name="Path 18" d="M55.939,426.24H27.646V413.847H41.853v-4.742H22.93v21.882h33.01V426.24" transform="translate(-22.327 -409.037)" fill="#fbf3e8"/>
      </g>
      <g id="Group_44-4" data-name="Group 44" transform="translate(0 0)" clip-path="url(#clip-path-2)">
        <path id="Path_20-4" data-name="Path 20" d="M12.384,426.2V400.428h28.6v12.393h-.018v.005H26.774v4.744H45.7V395.684H7.668V426.2h4.716" transform="translate(-7.235 -395.613)" fill="#fbf3e8"/>
      </g>
      <g id="Group_45-4" data-name="Group 45" transform="translate(53.115 8.696)" clip-path="url(#clip-path-3)">
        <path id="Path_22-4" data-name="Path 22" d="M122.159,426.24H93.866V413.847h14.207v-4.742H89.152v21.882h33.007V426.24" transform="translate(-89.054 -409.037)" fill="#fbf3e8"/>
      </g>
      <g id="Group_46-4" data-name="Group 46" transform="translate(42.751 0)" clip-path="url(#clip-path-4)">
        <path id="Path_24-4" data-name="Path 24" d="M78.6,426.2V400.428h28.6v12.393h-.018v.005H93v4.744h18.921V395.684H73.891V426.2H78.6" transform="translate(-73.314 -395.613)" fill="#fbf3e8"/>
      </g>
      <g id="Group_47-4" data-name="Group 47" transform="translate(95.866 8.696)" clip-path="url(#clip-path-5)">
        <path id="Path_26-4" data-name="Path 26" d="M188.383,426.195H160.093V413.8H174.3v-4.744H155.379v21.884h33v-4.744" transform="translate(-155.133 -409.019)" fill="#fbf3e8"/>
      </g>
      <g id="Group_48-4" data-name="Group 48" transform="translate(86.15 0)" clip-path="url(#clip-path-6)">
        <path id="Path_28-4" data-name="Path 28" d="M144.826,426.149V400.381h28.6v12.393H159.215v4.747h18.926V395.637H140.109v30.512h4.716" transform="translate(-140.039 -395.596)" fill="#fbf3e8"/>
      </g>
      <g id="Group_49-4" data-name="Group 49" transform="translate(138.617 8.696)" clip-path="url(#clip-path-7)">
        <path id="Path_30-4" data-name="Path 30" d="M254.607,426.195H226.314V413.8h14.207v-4.744H221.6v21.884h33.01v-4.744" transform="translate(-221.211 -409.019)" fill="#fbf3e8"/>
      </g>
      <g id="Group_50-4" data-name="Group 50" transform="translate(128.901 0)" clip-path="url(#clip-path-8)">
        <path id="Path_32-4" data-name="Path 32" d="M211.051,426.149V400.381h28.6v12.393h-14.21v4.747h18.926V395.637H206.332v30.512h4.719" transform="translate(-206.117 -395.596)" fill="#fbf3e8"/>
      </g>
      <g id="Group_51-4" data-name="Group 51" transform="translate(181.368 8.696)" clip-path="url(#clip-path-9)">
        <path id="Path_34-4" data-name="Path 34" d="M320.83,426.24H292.537V413.847h14.207v-4.742H287.82v21.882h33.01V426.24" transform="translate(-287.289 -409.037)" fill="#fbf3e8"/>
      </g>
      <g id="Group_52-4" data-name="Group 52" transform="translate(171.652 0)" clip-path="url(#clip-path-10)">
        <path id="Path_36-4" data-name="Path 36" d="M277.275,426.2V400.428h28.6v12.393h-.018v.005h-14.19v4.744h18.921V395.684H272.559V426.2h4.716" transform="translate(-272.197 -395.613)" fill="#fbf3e8"/>
      </g>
      <g id="Group_53-4" data-name="Group 53" transform="translate(224.767 8.696)" clip-path="url(#clip-path-11)">
        <path id="Path_38-4" data-name="Path 38" d="M387.053,426.24h-28.3V413.847h14.207v-4.742H354.043v21.882h33.01V426.24" transform="translate(-354.015 -409.037)" fill="#fbf3e8"/>
      </g>
      <g id="Group_54-4" data-name="Group 54" transform="translate(214.403 0)" clip-path="url(#clip-path-12)">
        <path id="Path_40-4" data-name="Path 40" d="M343.5,426.2V400.428h28.6v12.393h-.018v.005h-14.19v4.744h18.921V395.684H338.781V426.2H343.5" transform="translate(-338.275 -395.613)" fill="#fbf3e8"/>
      </g>
      <g id="Group_55-4" data-name="Group 55" transform="translate(267.518 8.696)" clip-path="url(#clip-path-13)">
        <path id="Path_42-4" data-name="Path 42" d="M453.274,426.195H424.983V413.8h14.207v-4.744H420.27v21.884h33v-4.744" transform="translate(-420.095 -409.019)" fill="#fbf3e8"/>
      </g>
      <g id="Group_56-4" data-name="Group 56" transform="translate(257.802 0)" clip-path="url(#clip-path-14)">
        <path id="Path_44-4" data-name="Path 44" d="M409.718,426.149V400.381h28.6v12.393H424.107v4.747h18.924V395.637H405v30.512h4.714" transform="translate(-405.001 -395.596)" fill="#fbf3e8"/>
      </g>
      <g id="Group_57-4" data-name="Group 57" transform="translate(310.269 8.696)" clip-path="url(#clip-path-15)">
        <path id="Path_46-4" data-name="Path 46" d="M519.5,426.195H491.2V413.8h14.207v-4.744H486.488v21.884H519.5v-4.744" transform="translate(-486.172 -409.019)" fill="#fbf3e8"/>
      </g>
      <g id="Group_58-4" data-name="Group 58" transform="translate(300.553 0)" clip-path="url(#clip-path-16)">
        <path id="Path_48-4" data-name="Path 48" d="M475.942,426.149V400.381h28.594v12.393H490.329v4.747h18.926V395.637H471.223v30.512h4.719" transform="translate(-471.078 -395.596)" fill="#fbf3e8"/>
      </g>
      <g id="Group_59-4" data-name="Group 59" transform="translate(353.02 8.696)" clip-path="url(#clip-path-17)">
        <path id="Path_50-4" data-name="Path 50" d="M585.721,426.24h-28.3V413.847h14.21v-4.742H552.711v21.882h33.01V426.24" transform="translate(-552.25 -409.037)" fill="#fbf3e8"/>
      </g>
      <g id="Group_60-4" data-name="Group 60" transform="translate(343.304 0)" clip-path="url(#clip-path-18)">
        <path id="Path_52-4" data-name="Path 52" d="M542.166,426.2V400.428h28.6v12.393h-.015v.005H556.555v4.744h18.924V395.684H537.449V426.2h4.716" transform="translate(-537.158 -395.613)" fill="#fbf3e8"/>
      </g>
      <g id="Group_61-4" data-name="Group 61" transform="translate(395.771 8.696)" clip-path="url(#clip-path-19)">
        <path id="Path_54-4" data-name="Path 54" d="M651.943,426.24h-28.3V413.847h14.207v-4.742H618.934v21.882h33.01V426.24" transform="translate(-618.329 -409.037)" fill="#fbf3e8"/>
      </g>
      <g id="Group_62-4" data-name="Group 62" transform="translate(386.055 0)" clip-path="url(#clip-path-20)">
        <path id="Path_56-4" data-name="Path 56" d="M608.386,426.2V400.428h28.6v12.393h-.018v.005h-14.19v4.744H641.7V395.684H603.672V426.2h4.714" transform="translate(-603.237 -395.613)" fill="#fbf3e8"/>
      </g>
      <g id="Group_63-4" data-name="Group 63" transform="translate(439.17 8.696)" clip-path="url(#clip-path-21)">
        <path id="Path_58-4" data-name="Path 58" d="M718.162,426.195H689.871V413.8h14.207v-4.744H685.152v21.884h33.01v-4.744" transform="translate(-685.054 -409.019)" fill="#fbf3e8"/>
      </g>
      <g id="Group_64-4" data-name="Group 64" transform="translate(428.806 0)" clip-path="url(#clip-path-22)">
        <path id="Path_60-4" data-name="Path 60" d="M674.608,426.149V400.381h28.6v12.393H689v4.747h18.921V395.637H669.894v30.512h4.714" transform="translate(-669.315 -395.596)" fill="#fbf3e8"/>
      </g>
      <g id="Group_65-4" data-name="Group 65" transform="translate(481.921 8.696)" clip-path="url(#clip-path-23)">
        <path id="Path_62-4" data-name="Path 62" d="M784.388,426.195H756.1V413.8H770.3v-4.744H751.379v21.884h33.01v-4.744" transform="translate(-751.133 -409.019)" fill="#fbf3e8"/>
      </g>
      <g id="Group_66-4" data-name="Group 66" transform="translate(472.205 0)" clip-path="url(#clip-path-24)">
        <path id="Path_64-4" data-name="Path 64" d="M740.832,426.149V400.381h28.594v12.393H755.219v4.747h18.926V395.637H736.113v30.512h4.719" transform="translate(-736.04 -395.596)" fill="#fbf3e8"/>
      </g>
    </g>
  </g>
</svg>
